<svg width="341" height="129" viewBox="0 0 341 129" fill="none" xmlns="http://www.w3.org/2000/svg">
<path d="M87.04 46.84L66.88 82.84H46.72L26.56 46.84V103H0.64V2.19999H28L56.8 55.48L85.6 2.19999H112.96V103H87.04V46.84ZM206.616 81.4C206.616 88.6 204.552 94.264 200.424 98.392C196.392 102.424 190.776 104.44 183.576 104.44H150.456C143.256 104.44 137.592 102.424 133.464 98.392C129.432 94.264 127.416 88.6 127.416 81.4V48.28C127.416 41.08 129.432 35.464 133.464 31.432C137.592 27.304 143.256 25.24 150.456 25.24H183.576C190.776 25.24 196.392 27.304 200.424 31.432C204.552 35.464 206.616 41.08 206.616 48.28V81.4ZM181.416 50.44C181.416 46.6 179.496 44.68 175.656 44.68H158.376C154.536 44.68 152.616 46.6 152.616 50.44V79.24C152.616 83.08 154.536 85 158.376 85H175.656C179.496 85 181.416 83.08 181.416 79.24V50.44ZM269.239 97.24C259.927 99.16 251.767 100.12 244.759 100.12H239.719C233.191 100.12 227.959 98.152 224.023 94.216C220.087 90.28 218.119 85.048 218.119 78.52V49.72C218.119 42.52 220.135 36.904 224.167 32.872C228.295 28.744 233.959 26.68 241.159 26.68H294.439V107.32C294.439 113.848 292.471 119.08 288.535 123.016C284.599 126.952 279.367 128.92 272.839 128.92C257.767 128.92 240.967 127.96 222.439 126.04V107.32C240.775 108.76 254.695 109.48 264.199 109.48C265.639 109.48 266.839 109 267.799 108.04C268.759 107.08 269.239 105.88 269.239 104.44V97.24ZM251.959 80.68C258.007 80.68 263.767 80.2 269.239 79.24V46.12H249.079C245.239 46.12 243.319 48.04 243.319 51.88V75.64C243.319 77.08 243.799 78.28 244.759 79.24C245.719 80.2 246.919 80.68 248.359 80.68H251.959ZM340.536 29.56V103H315.336V49H304.536V29.56H340.536ZM315.336 0.759995H340.536V20.92H315.336V0.759995Z" fill="#31984E"/>
</svg>
