<?xml version="1.0" encoding="UTF-8"?>
<svg width="1694px" height="330px" viewBox="0 0 1694 330" version="1.1" xmlns="http://www.w3.org/2000/svg" xmlns:xlink="http://www.w3.org/1999/xlink">
    <!-- Generator: Sketch 51.2 (57519) - http://www.bohemiancoding.com/sketch -->
    <title>google_analytics-horizontal</title>
    <desc>Created with Sketch.</desc>
    <defs></defs>
    <g id="Page-1" stroke="none" stroke-width="1" fill="none" fill-rule="evenodd">
        <g id="google_analytics-horizontal" transform="translate(-37.000000, -15.000000)">
            <g id="ic_analytics">
                <rect id="bounding_box_1_" x="0" y="0" width="360" height="360"></rect>
                <g id="Analytics_1_" transform="translate(37.500000, 15.000000)" fill-rule="nonzero">
                    <g id="right" transform="translate(206.250000, 0.000000)" fill="#F9AB00">
                        <path d="M0,39.375 L0,286.875 C0,314.56875 19.10625,330 39.375,330 C58.125,330 78.75,316.875 78.75,286.875 L78.75,41.25 C78.75,15.8625 60,0 39.375,0 C18.75,0 0,17.49375 0,39.375 Z" id="Shape"></path>
                    </g>
                    <g id="middle_1_" transform="translate(103.125000, 125.625000)" fill="#E37400">
                        <path d="M0,39.375 L0,161.25 C0,188.94375 19.10625,204.375 39.375,204.375 C58.125,204.375 78.75,191.25 78.75,161.25 L78.75,41.25 C78.75,15.8625 60,0 39.375,0 C18.75,0 0,17.49375 0,39.375 Z" id="Shape"></path>
                    </g>
                    <g id="left_2_" transform="translate(0.000000, 251.250000)" fill="#E37400">
                        <circle id="Oval" cx="39.375" cy="39.375" r="39.375"></circle>
                    </g>
                </g>
            </g>
            <g transform="translate(491.000000, 120.000000)" fill="#757575" id="g4792">
                <g>
                    <path d="M640.028573,34.7829835 L661.099491,90.1332822 L620.274629,90.1332822 L640.028573,34.7829835 Z M632.127014,16.3329163 L586.034399,137.576333 L603.154538,137.576333 L615.006924,104.629774 L666.367196,104.629774 L678.219582,137.576333 L695.339721,137.576333 L649.247105,16.3329163 L632.127014,16.3329163 Z" id="path4349" fill-rule="nonzero"></path>
                    <polygon id="path4351" fill-rule="nonzero" points="881.027012 137.576333 896.830177 137.576333 896.830177 16.3329163 881.027012 16.3329163"></polygon>
                    <path d="M719.044492,66.4117325 C724.312197,58.5045332 734.847656,51.9152407 745.383115,51.9152407 C766.453985,51.9152407 776.989444,66.4117325 776.989444,87.4975167 L776.989444,138.894191 L761.18628,138.894191 L761.18628,90.1332822 C761.18628,73.0010249 751.967747,66.4117325 740.115362,66.4117325 C726.94605,66.4117325 717.727517,79.5903658 717.727517,91.4511406 L717.727517,137.576333 L701.924352,137.576333 L701.924352,53.2330992 L717.727517,53.2330992 L719.044492,66.4117325 Z" id="path4353" fill-rule="nonzero"></path>
                    <path d="M790.158756,112.536925 C790.158756,94.0868576 807.278847,83.5439413 827.032839,83.5439413 C838.885224,83.5439413 846.786782,86.1796583 849.420683,88.8153752 L849.420683,86.1796583 C849.420683,73.0010249 838.885224,66.4117325 828.349765,66.4117325 C819.131232,66.4117325 811.229674,70.365308 808.595773,78.2725073 L794.109535,71.6831665 C796.743388,63.7759671 807.278847,51.9152407 828.349765,51.9152407 C848.103709,51.9152407 865.223848,63.7759671 865.223848,87.4975167 L865.223848,137.576333 L850.73761,137.576333 L850.73761,125.715558 L849.420683,125.715558 C845.469856,132.304899 836.251371,140.21205 821.765085,140.21205 C804.644994,140.21205 790.158756,129.669182 790.158756,112.536925 M849.420683,101.994009 C849.420683,101.994009 842.836003,96.7225746 829.666691,96.7225746 C813.863527,96.7225746 807.278847,105.947632 807.278847,112.536925 C807.278847,121.761983 816.49738,125.715558 824.398986,125.715558 C836.251371,125.715558 849.420683,115.172642 849.420683,101.994009" id="path4355" fill-rule="nonzero"></path>
                    <polygon id="path4357" points="919.218021 174.476516 919.218021 174.476516 937.655038 130.987041 904.731783 54.5509577 920.534948 54.5509577 945.556645 112.536925 970.578342 54.5509577 986.381507 54.5509577 935.021186 174.476516"></polygon>
                    <path d="M1150.99793,82.2260828 C1147.0471,71.6831665 1137.82862,65.093874 1128.61008,65.093874 C1115.44077,65.093874 1103.58839,76.9546004 1103.58839,94.0868576 C1103.58839,111.219066 1115.44077,123.079841 1128.61008,123.079841 C1137.82862,123.079841 1147.0471,116.490549 1150.99793,107.265491 L1164.16724,115.172642 C1157.58256,129.669182 1144.41325,138.894191 1128.61008,138.894191 C1106.22224,138.894191 1087.78522,119.126266 1087.78522,94.0868576 C1087.78522,67.729591 1106.22224,49.2794753 1128.61008,49.2794753 C1144.41325,49.2794753 1157.58256,58.5045332 1164.16724,73.0010249 L1150.99793,82.2260828 Z" id="path4359"></path>
                    <path d="M1207.62595,140.21205 C1228.69687,140.21205 1239.23228,128.351275 1239.23228,113.854783 C1239.23228,82.2260828 1193.13972,94.0868576 1193.13972,75.6367419 C1193.13972,69.0474495 1198.40742,65.093874 1207.62595,65.093874 C1216.84449,65.093874 1226.06297,69.0474495 1230.0138,75.6367419 L1239.23228,66.4117325 C1233.96458,59.8223916 1219.47834,50.5973338 1206.30903,50.5973338 C1186.55504,50.5973338 1176.01963,62.4581086 1176.01963,76.9546004 C1176.01963,107.265491 1223.42912,96.7225746 1223.42912,112.536925 C1223.42912,120.444124 1218.16141,125.715558 1207.62595,125.715558 C1197.0905,125.715558 1191.82279,119.126266 1186.55504,112.536925 L1174.70265,121.761983 C1182.60426,129.669182 1194.45664,140.21205 1207.62595,140.21205 Z" id="path4361" fill-rule="nonzero"></path>
                    <polygon id="path4363" fill-rule="nonzero" points="1057.49577 137.576333 1073.29898 137.576333 1073.29898 53.2330992 1057.49577 53.2330992"></polygon>
                    <path d="M1064.08045,12.3793408 C1070.66513,12.3793408 1074.61591,17.6507747 1074.61591,22.9222087 C1074.61591,29.5115496 1069.34816,33.465125 1064.08045,33.465125 C1058.81275,33.465125 1053.54499,28.1936911 1053.54499,22.9222087 C1053.54499,17.6507747 1058.81275,12.3793408 1064.08045,12.3793408 Z" id="path4365"></path>
                    <path d="M1041.69261,124.3977 L1044.32646,136.258475 C1039.05875,136.258475 1033.79105,136.258475 1028.52329,136.258475 C1014.03706,136.258475 1007.45242,125.715558 1007.45242,109.901208 L1007.45242,69.0474495 L991.649212,69.0474495 L991.649212,53.2330992 L1007.45242,53.2330992 L1007.45242,28.1936911 L1023.25559,28.1936911 L1023.25559,53.2330992 L1041.69261,53.2330992 L1041.69261,69.0474495 L1023.25559,69.0474495 L1023.25559,112.536925 C1023.25559,124.3977 1032.47412,124.3977 1041.69261,124.3977 Z" id="path4367"></path>
                    <path d="M71.114303,65.093874 L71.114303,84.8617998 L117.206899,84.8617998 C115.889968,95.4047161 111.939174,103.311915 106.67145,108.583349 C100.086794,115.172642 89.5513444,123.079841 71.114303,123.079841 C43.4587483,123.079841 21.0709182,100.67615 21.0709182,71.6831665 C21.0709182,44.0080414 43.4587483,20.2864917 71.114303,20.2864917 C86.917482,20.2864917 97.4529315,26.8758326 105.354519,33.465125 L118.52383,20.2864917 C106.67145,9.74357539 92.1852068,0.518565983 71.114303,0.518565983 C32.9232988,0.518565983 1.93630044e-05,32.1472665 1.93630044e-05,70.365308 C1.93630044e-05,108.583349 32.9232988,140.21205 71.114303,140.21205 C92.1852068,140.21205 107.988381,133.622758 119.840762,120.444124 C133.010073,107.265491 136.960867,90.1332822 136.960867,75.6367419 C136.960867,71.6831665 136.960867,66.4117325 135.643936,63.7759671 L71.114303,63.7759671 L71.114303,65.093874 Z" id="path4369" fill-rule="nonzero"></path>
                    <path d="M188.321183,49.2794753 C163.29949,49.2794753 143.545523,67.729591 143.545523,94.0868576 C143.545523,120.444124 163.29949,138.894191 188.321183,138.894191 C213.34288,138.894191 233.096848,119.126266 233.096848,94.0868576 C233.096848,67.729591 213.34288,49.2794753 188.321183,49.2794753 Z M188.321183,121.761983 C175.151871,121.761983 163.29949,109.901208 163.29949,94.0868576 C163.29949,78.2725073 175.151871,66.4117325 188.321183,66.4117325 C201.490495,66.4117325 213.34288,76.9546004 213.34288,94.0868576 C213.34288,111.219066 201.490495,121.761983 188.321183,121.761983 Z" id="path4371" fill-rule="nonzero"></path>
                    <path d="M404.297887,58.5045332 C399.030181,53.2330992 391.128575,47.9616168 379.276189,47.9616168 C356.888383,47.9616168 337.134411,67.729591 337.134411,92.7689991 C337.134411,117.808407 356.888383,137.576333 379.276189,137.576333 C389.811648,137.576333 399.030181,132.304899 402.98096,127.033417 L404.297887,127.033417 L404.297887,133.622758 C404.297887,150.754966 395.079402,159.980024 380.593164,159.980024 C368.740779,159.980024 360.839172,150.754966 358.205315,144.165674 L341.085204,150.754966 C346.352934,162.615741 359.522246,177.112233 380.593164,177.112233 C404.297887,177.112233 424.051878,163.9336 424.051878,129.669182 L424.051878,47.9616168 L405.614813,47.9616168 L405.614813,58.5045332 L404.297887,58.5045332 Z M381.91009,121.761983 C368.740779,121.761983 358.205315,109.901208 358.205315,94.0868576 C358.205315,78.2725073 368.740779,66.4117325 381.91009,66.4117325 C395.079402,66.4117325 405.614813,78.2725073 405.614813,94.0868576 C405.614813,109.901208 395.079402,121.761983 381.91009,121.761983 Z" id="path4373" fill-rule="nonzero"></path>
                    <path d="M285.774095,49.2794753 C260.752403,49.2794753 240.998435,67.729591 240.998435,94.0868576 C240.998435,120.444124 260.752403,138.894191 285.774095,138.894191 C310.795787,138.894191 330.549755,119.126266 330.549755,94.0868576 C331.866686,67.729591 310.795787,49.2794753 285.774095,49.2794753 Z M285.774095,121.761983 C272.604783,121.761983 260.752403,109.901208 260.752403,94.0868576 C260.752403,78.2725073 272.604783,66.4117325 285.774095,66.4117325 C298.943407,66.4117325 310.795787,76.9546004 310.795787,94.0868576 C310.795787,111.219066 298.943407,121.761983 285.774095,121.761983 Z" id="path4375" fill-rule="nonzero"></path>
                    <polygon id="path4377" fill-rule="nonzero" points="438.538117 1.83642447 458.292108 1.83642447 458.292108 138.894191 438.538117 138.894191"></polygon>
                    <path d="M512.286282,121.761983 C501.750823,121.761983 495.166143,116.490549 489.898437,108.583349 L550.477291,83.5439413 L547.84339,78.2725073 C543.892611,67.729591 532.040225,49.2794753 509.652381,49.2794753 C485.947658,49.2794753 467.510593,67.729591 467.510593,94.0868576 C467.510593,119.126266 487.264585,138.894191 512.286282,138.894191 C533.357152,138.894191 545.209537,125.715558 550.477291,119.126266 L534.674078,108.583349 C529.406373,116.490549 522.821693,121.761983 512.286282,121.761983 Z M510.969356,66.4117325 C518.870914,66.4117325 525.455594,70.365308 528.089446,76.9546004 L487.264585,94.0868576 C487.264585,74.3188834 500.433897,66.4117325 510.969356,66.4117325 Z" id="path4379" fill-rule="nonzero"></path>
                </g>
            </g>
        </g>
    </g>
</svg>