<?xml version="1.0" encoding="utf-8"?>
<!-- Generator: Adobe Illustrator 21.0.0, SVG Export Plug-In . SVG Version: 6.00 Build 0)  -->
<svg version="1.1" id="Layer_1" xmlns="http://www.w3.org/2000/svg" xmlns:xlink="http://www.w3.org/1999/xlink" x="0px" y="0px"
	 viewBox="0 0 137.3 56" style="enable-background:new 0 0 137.3 56;" xml:space="preserve">
<style type="text/css">
	.st0{fill:#45535E;}
	.st1{fill:#F8761F;}
</style>
<title>hubspot</title>
<desc>Created with Sketch Beta.</desc>
<g>
	<path class="st0" d="M7.3,12.3h4.3v9.5h9v-9.5h4.3v23.2h-4.3v-9.6h-9v9.6H7.3V12.3z M38.3,28c0,1.9-1.6,3.5-3.5,3.5
		c-1.9,0-3.5-1.6-3.5-3.5V18h-4v10c0,4.2,3.4,7.6,7.6,7.6c4.2,0,7.6-3.4,7.6-7.6V18h-4V28 M53.6,18.1c-2,0-3.4,0.6-4.7,1.9v-7.7h-4
		v14.2c0,5.3,3.9,9,8.2,9c4.8,0,9-3.7,9-8.7C62,21.9,58.1,18.1,53.6,18.1L53.6,18.1z M53.7,31.8c-2.7,0-4.8-2.3-4.8-5
		c0-2.7,2.1-5,4.8-5c2.3,0,4.4,2.3,4.4,5C58.1,29.5,56,31.8,53.7,31.8z M68.8,19.1c0-2,1.4-2.7,2.8-2.7c1.2,0,2.8,0.9,3.8,2l2.6-3.1
		c-1.3-1.8-4-3-6.2-3c-4.4,0-7.6,2.5-7.6,6.8c0,7.8,9.7,5.4,9.7,9.7c0,1.4-1.3,2.5-2.8,2.5c-2.4,0-3.2-1.2-4.3-2.4L64,32
		c1.9,2.3,4.2,3.5,7,3.5c4.2,0,7.5-2.6,7.5-6.6C78.4,20.2,68.8,22.9,68.8,19.1 M89.1,17.9c-4.3,0-8.2,3.6-8.2,9v14.3h4v-7.7
		c1.3,1.3,2.7,1.9,4.7,1.9c4.5,0,8.4-3.8,8.4-8.7C98.1,21.6,93.9,17.9,89.1,17.9L89.1,17.9z M89.8,31.5c-2.7,0-4.8-2.3-4.8-5
		c0-2.7,2.1-5,4.8-5c2.3,0,4.4,2.3,4.4,5C94.2,29.3,92.1,31.5,89.8,31.5z M127.9,31.8c-2.4,0-3.1-1-3.1-2.6v-7h3.7v-3.5h-3.7v-4.7
		l-4.1,1.8V30c0,3.6,2.5,5.5,6,5.5c0.5,0,1.2,0,1.6-0.1l1-3.7C128.9,31.7,128.4,31.8,127.9,31.8"/>
	<path class="st1" d="M117.2,22.4c-0.8-1.3-1.9-2.4-3.2-3.2c-1-0.6-2.1-1-3.3-1.1v-4.2c1.2-0.5,1.9-1.6,1.9-2.9
		c0-1.8-1.4-3.2-3.2-3.2c-1.8,0-3.2,1.4-3.2,3.2c0,1.3,0.7,2.4,1.9,2.9V18c-1,0.1-1.9,0.4-2.8,0.9c-1.8-1.4-7.9-6-11.4-8.7
		C93.9,9.9,94,9.6,94,9.3c0-2-1.6-3.6-3.6-3.6s-3.6,1.6-3.6,3.6c0,2,1.6,3.6,3.6,3.6c0.7,0,1.3-0.2,1.8-0.5l0.7,0.6l10.3,7.4
		c-0.5,0.5-1,1.1-1.5,1.7c-0.8,1.3-1.3,2.7-1.3,4.3v0.3c0,1.1,0.2,2.1,0.6,3.1c0.3,0.8,0.8,1.6,1.3,2.3L99,35.4
		c-1-0.4-2.1-0.1-2.9,0.6c-0.5,0.5-0.8,1.2-0.8,2c0,0.7,0.3,1.4,0.8,2c0.5,0.5,1.2,0.8,2,0.8c0.7,0,1.4-0.3,2-0.8
		c0.5-0.5,0.8-1.2,0.8-2c0-0.3,0-0.6-0.1-0.8l3.5-3.5c0.5,0.3,1,0.6,1.6,0.9c1.1,0.5,2.3,0.8,3.7,0.8h0.2c1.5,0,2.9-0.3,4.2-1.1
		c1.4-0.7,2.5-1.8,3.3-3.1c0.8-1.3,1.3-2.8,1.3-4.4v-0.1C118.4,25.1,118,23.7,117.2,22.4L117.2,22.4z M112.9,29.7
		c-1,1.1-2.1,1.7-3.3,1.7h-0.2c-0.7,0-1.4-0.2-2.1-0.6c-0.8-0.4-1.3-1-1.8-1.7c-0.5-0.7-0.8-1.5-0.8-2.3v-0.2c0-0.8,0.2-1.5,0.5-2.3
		c0.4-0.8,1-1.4,1.7-1.9c0.7-0.5,1.5-0.7,2.4-0.7h0.1c0.8,0,1.5,0.2,2.2,0.5c0.7,0.4,1.3,0.9,1.7,1.6c0.4,0.7,0.7,1.4,0.8,2.2
		c0,0.2,0,0.3,0,0.5C114.2,27.8,113.8,28.8,112.9,29.7L112.9,29.7z"/>
</g>
</svg>
