<?xml version="1.0" encoding="utf-8"?>
<!-- Generator: Adobe Illustrator 21.0.0, SVG Export Plug-In . SVG Version: 6.00 Build 0)  -->
<svg version="1.1" id="Layer_1" xmlns="http://www.w3.org/2000/svg" xmlns:xlink="http://www.w3.org/1999/xlink" x="0px" y="0px"
	 viewBox="0 0 2500 642" style="enable-background:new 0 0 2500 642;" xml:space="preserve">
<style type="text/css">
	.st0{fill:#1F8DED;}
</style>
<path class="st0" d="M851.6,413.7V228.3c0-11.4,9.3-20.7,20.7-20.7s20.7,9.3,20.7,20.7v185.5c0,11.4-9.3,20.7-20.7,20.7
	C861.6,434.4,851.6,425.1,851.6,413.7z M1088.4,421.6l-89.9-143.4v135.5c0,11.4-9.3,20.7-20.7,20.7c-11.4,0-20.7-9.3-20.7-20.7V234
	c0-15,12.1-27.8,27.8-27.8h1.4c9.3,0,18.5,5,23.5,12.8l89.2,141.2V226.8c0-11.4,9.3-20.7,20.7-20.7s20.7,9.3,20.7,20.7v179.8
	c0,15-12.1,27.8-27.8,27.8C1102.7,434.4,1093.4,430.1,1088.4,421.6L1088.4,421.6z M1284.6,246.1v169.8c0,10.7-8.6,19.3-19.3,19.3
	h-2.9c-10.7,0-19.3-8.6-19.3-19.3V246.1h-47.8c-10.7,0-19.3-8.6-19.3-19.3c0-10.7,8.6-19.3,19.3-19.3h137.7
	c10.7,0,19.3,8.6,19.3,19.3c0,10.7-8.6,19.3-19.3,19.3H1284.6z M1385.2,415.9V225.4c0-10,8.6-18.5,18.5-18.5h124.8
	c10,0,18.5,8.6,18.5,18.5s-8.6,18.5-18.5,18.5h-102v52.8h87.7c10,0,18.5,8.6,18.5,18.5s-8.6,18.5-18.5,18.5h-87.7v62.1h102
	c10,0,18.5,8.6,18.5,18.5s-8.6,18.5-18.5,18.5h-124.8C1393.7,434.4,1385.2,426.6,1385.2,415.9L1385.2,415.9z M1721.9,422.3
	l-32.8-73.5h-50.6v65.6c0,11.4-9.3,20.7-20.7,20.7h-0.7c-11.4,0-20.7-9.3-20.7-20.7V228.3c0-11.4,9.3-20.7,20.7-20.7h75.6
	c54.2,0,79.2,34.2,79.2,70.6c0,30.7-16.4,54.2-41.4,63.5l28.5,64.2c5.7,13.6-3.6,28.5-18.5,28.5
	C1732.6,434.4,1724.7,430.1,1721.9,422.3L1721.9,422.3z M1693.3,243.2h-54.2V311h54.9c23.5,0,37.1-12.1,37.1-33.5
	C1730.4,259.7,1716.9,243.2,1693.3,243.2L1693.3,243.2z M1968.7,411.6c-17.1,17.1-40.7,27.1-64.9,27.1s-47.1-7.8-64.2-25.7
	c-25-25-28.5-54.9-28.5-92s3.6-67.8,28.5-92c17.1-17.1,39.9-25.7,64.2-25.7s47.8,9.3,64.9,26.4c5.7,6.4,10.7,12.8,14.3,20.7
	c6.4,13.6-3.6,28.5-18.5,28.5c-8.6,0-15.7-5-19.3-12.8c-1.4-4.3-4.3-7.8-7.1-11.4c-7.1-9.3-20-14.3-34.2-14.3
	c-12.8,0-25.7,5.7-35,15c-15.7,16.4-15.7,44.2-15.7,65.6c0,20.7,0,49.2,15.7,65.6c9.3,9.3,22.1,15,35,15c14.3,0,27.1-5,34.2-14.3
	c2.9-3.6,5.7-7.8,7.1-12.1c2.9-7.8,10.7-12.8,19.3-12.8c15,0,25,15,18.5,28.5C1979.4,398.8,1974.4,405.9,1968.7,411.6z M2190.5,413
	c-17.1,17.1-41.4,25.7-65.6,25.7s-47.8-8.6-65.6-25.7c-25-25-28.5-54.9-28.5-92s4.3-67.8,28.5-92c17.1-17.1,41.4-25.7,65.6-25.7
	c24.3,0,47.8,8.6,65.6,25.7c25,25,28.5,54.9,28.5,92C2219.8,358.1,2215.5,388.8,2190.5,413z M2161.3,256.1c-9.3-9.3-22.8-15-35.7-15
	c-12.8,0-27.1,5.7-35.7,15c-15.7,16.4-16.4,44.2-16.4,65.6c0,20.7,0.7,48.5,16.4,64.9c9.3,9.3,22.8,15,35.7,15
	c12.8,0,27.1-5.7,35.7-15c15.7-16.4,16.4-44.2,16.4-64.9C2177.7,300.3,2177,271.8,2161.3,256.1L2161.3,256.1z M2459.5,414.4v-142
	L2406,417.3c-2.9,8.6-11.4,14.3-20.7,14.3c-9.3,0-17.1-5.7-20.7-14.3l-53.5-146.9v144.1c0,11.4-9.3,20-20,20c-11.4,0-20-9.3-20-20
	V238.3c0-17.1,14.3-31.4,31.4-31.4h2.9c12.8,0,25,7.8,29.2,20.7l52.1,141.2l52.8-141.2c4.3-12.1,16.4-20.7,29.2-20.7
	c17.1,0,31.4,14.3,31.4,31.4v176.2c0,11.4-9.3,20-20,20C2468,434.4,2459.5,425.9,2459.5,414.4L2459.5,414.4z M562.7,0H81.2
	C36.3,0,0.6,35.7,0.6,79.9v481.5c0,44.9,35.7,80.6,80.6,80.6h481.5c44.2,0,79.9-35.7,79.9-79.9V80.6C642.6,35.7,606.9,0,562.7,0z
	 M407.2,117.7c0-12.1,9.3-21.4,21.4-21.4s21.4,9.3,21.4,21.4v286c0,12.1-9.3,21.4-21.4,21.4s-21.4-9.3-21.4-21.4V117.7z M300.2,107
	c0-12.1,9.3-21.4,21.4-21.4S343,94.9,343,107v310.3c0,12.1-9.3,21.4-21.4,21.4s-21.4-9.3-21.4-21.4V107z M193.2,117.7
	c0-12.1,9.3-21.4,21.4-21.4c12.1,0,21.4,9.3,21.4,21.4v286c0,12.1-9.3,21.4-21.4,21.4c-12.1,0-21.4-9.3-21.4-21.4V117.7z
	 M86.2,160.5c0-12.1,9.3-21.4,21.4-21.4s21.4,9.3,21.4,21.4v192.6c0,12.1-9.3,21.4-21.4,21.4s-21.4-9.3-21.4-21.4V160.5z
	 M549.9,487.2c-3.6,2.9-82.7,69.2-228.3,69.2S96.9,490.1,93.3,487.2c-9.3-7.8-10-21.4-2.1-30c7.8-9.3,21.4-10,30-2.1
	c1.4,0,72,58.5,200.4,58.5c129.8,0,199.7-58.5,199.7-59.2c9.3-7.8,22.8-6.4,30,2.1C559.8,465.8,558.4,479.4,549.9,487.2L549.9,487.2
	z M557,353.1c0,12.1-9.3,21.4-21.4,21.4s-21.4-9.3-21.4-21.4V160.5c0-12.1,9.3-21.4,21.4-21.4s21.4,9.3,21.4,21.4V353.1z"/>
</svg>
