<?xml version="1.0" encoding="UTF-8" standalone="yes"?>
<svg version="1.1" id="Layer_1" xmlns="http://www.w3.org/2000/svg" xmlns:xlink="http://www.w3.org/1999/xlink" x="0px" y="0px" viewBox="0 0 238.456 92.715" enable-background="new 0 0 238.456 92.715" xml:space="preserve" preserveAspectRatio="xMidYMid meet">
  <path fill="#3E4345" d="M7.967,73.381V20.706H0v52.959c0,12.479,7.868,19.248,19.347,17.904v-7.608C13.28,84.245,7.967,82.045,7.967,73.381"/>
  <path fill="#3E4345" d="M43.265,85.002c-9.011,0-16.422-7.997-16.422-17.806c0-10.009,7.411-18.206,16.422-18.206c9.094,0,16.491,8.197,16.491,18.206C59.756,77.005,52.359,85.002,43.265,85.002 M43.265,41.28c-13.85,0-24.576,11.622-24.576,25.916c0,14.096,10.726,25.615,24.576,25.615c13.936,0,24.558-11.52,24.558-25.615C67.823,52.902,57.201,41.28,43.265,41.28"/>
  <path fill="#3E4345" d="M169.977,61.954c2.085-8.38,9.196-13.334,15.936-13.334c7.11,0,13.75,5.328,15.747,13.334H169.977z M185.912,41.28c-13.564,0-24.561,11.622-24.561,25.817c0,14.379,10.996,25.617,25.029,25.617c11.296,0,19.636-5.9,23.048-16.379h-8.54c-2.655,5.709-7.58,9.054-14.508,9.054c-8.051,0-15.834-6.014-16.877-16.194h41.067C210.671,51.762,198.52,41.28,185.912,41.28"/>
  <path fill="#3E4345" d="M222.521,48.049v-5.525h-7.78v49.046h8.066V63.185c0-9.809,7.21-14.279,15.648-13.807v-7.997C232.859,40.707,226.22,42.808,222.521,48.049"/>
  <path fill="#652B81" d="M94.669,41.28c-3.613,0-6.999,0.798-10.039,2.227l5.155,6.326c1.542-0.541,3.185-0.843,4.884-0.843c9.094,0,16.505,8.197,16.505,18.206c0,9.809-7.411,17.806-16.505,17.806c-9.011,0-16.408-7.997-16.408-17.806c0-6.013,2.671-11.337,6.755-14.663l-5.04-6.169c-6.027,4.727-9.868,12.292-9.868,20.832c0,14.096,10.71,25.615,24.561,25.615c13.936,0,24.558-11.52,24.558-25.615C119.227,52.902,108.604,41.28,94.669,41.28"/>
  <path fill="#652B81" d="M81.076,32.256c0,2.013-0.843,3.841-2.2,5.126l3.498,4.297c2.585-2.313,4.226-5.682,4.226-9.424c0-2.769-0.897-5.327-2.398-7.411l-4.213,3.642C80.677,29.586,81.076,30.871,81.076,32.256"/>
  <path fill="#652B81" d="M74.008,39.353c-3.899,0-7.068-3.185-7.068-7.097c0-3.911,3.169-7.097,7.068-7.097c1.37,0,2.655,0.402,3.741,1.085l4.296-3.711c-2.182-1.828-4.983-2.926-8.037-2.926c-6.956,0-12.608,5.668-12.608,12.649c0,6.984,5.653,12.652,12.608,12.652c1.742,0,3.412-0.357,4.94-1.016l-3.784-4.64C74.778,39.31,74.393,39.353,74.008,39.353"/>
  <path fill="#652B81" d="M96.068,8.968c2.926,0,5.297,2.384,5.297,5.324c0,2.944-2.371,5.327-5.297,5.327c-1.528,0-2.9-0.655-3.872-1.712l-3.137,2.727c1.727,1.925,4.226,3.156,7.009,3.156c5.213,0,9.453-4.256,9.453-9.498c0-5.224-4.239-9.494-9.453-9.494c-3.07,0-5.786,1.486-7.512,3.771l4.1,1.685C93.583,9.466,94.768,8.968,96.068,8.968"/>
  <path fill="#652B81" d="M90.77,14.293c0-0.942,0.257-1.814,0.686-2.583l-3.87-1.588c-0.613,1.258-0.969,2.671-0.969,4.171c0,1.627,0.413,3.154,1.127,4.484l3.3-2.857C90.882,15.407,90.77,14.863,90.77,14.293"/>
  <path fill="#652B81" d="M76.264,12.652c2.714,0,5.013-1.742,5.896-4.184l-2.556-1.042c-0.469,1.413-1.785,2.454-3.34,2.454c-1.958,0-3.541-1.599-3.541-3.553c0-1.956,1.582-3.541,3.541-3.541c1.927,0,3.498,1.555,3.527,3.497l2.655,1.084c0.059-0.341,0.112-0.685,0.112-1.04C82.559,2.843,79.732,0,76.264,0c-3.484,0-6.313,2.843-6.313,6.327C69.951,9.822,72.779,12.652,76.264,12.652"/>
  <polygon fill="#3E4345" points="165.235,42.522 153.382,42.522 131.094,64.528 131.094,20.706 123.027,20.706 123.027,91.572 131.094,91.572 131.094,75.766 140.477,66.61 157.166,91.572 166.935,91.572 146.358,60.899 "/>
</svg>