<svg xmlns="http://www.w3.org/2000/svg" viewBox="0 0 300 100"  xmlns:v="https://vecta.io/nano"><g fill="#59473c"><path d="M95.8 66.6v-.5c0-.2-.1-.3-.1-.5h0c-.1-.3-.3-.6-.5-.8s-.5-.4-.7-.6h0l-.8-.3h-.2c.3-1.3-.1-2.3-.3-2.8l.1-.1c.3-.3.6-.6.8-.9V60c.2-.3.3-.6.4-.8s.1-.4.1-.6h0v-.5c0-.4-.1-.9-.4-1.5-.1-.3-.3-.6-.6-.9-.2-.3-.6-.5-.9-.7h0-.1c-.7-1.1-1.6-1.9-2.3-2.6-.4-.3-.7-.6-1.1-.8l-1.4-1-.6-.4c-.1-.1-.1-.1-.2-.1h0v-1.7c0-.9.1-2.1.3-3.7v-1.5c0-.7-.1-1.4-.3-2h0c0-.1-.1-.3-.1-.4h0c0-.1-.1-.2-.1-.2h0c0-.1-.1-.2-.1-.3h0s0-.1-.1-.2h0c-.1-.1-.1-.3-.2-.4h0v-.1a3.04 3.04 0 0 0-.5-.7c-.1-.4-.2-.9-.5-1.6-.2-.6-.5-1.2-.9-1.8-.1-.2-.3-.4-.5-.6l.1-.1c.1-.1 2-2.1 3.6-4.8 2.8-4.9 1.9-7.9.6-9.6h0c-1.2-1.4-2.9-2.2-5-2.5-4.3-.5-9.3 1.6-10.5 2.2l-2.3-2.6c-.2-.2-.4-.4-.7-.6-.2-.2-.5-.3-.8-.5-.6-.3-1.2-.4-1.8-.5-1.3-.2-2.8 0-4.4.4-2.4.6-5.1 1.8-7.9 3.5s-5.7 3.9-8.6 6.5c-3.5 3.2-6.4 6.5-8.4 9.7-1 1.6-1.9 3.1-2.5 4.6s-1 2.9-1.2 4.1c-.1.9-.1 1.8.1 2.6.1.4.2.7.4 1 .2.4.4.8.8 1.1h0l2.7 2.9c0 .1-.1.1-.1.2s-.1.2-.1.2c0 .1-.1.1-.1.2s-.1.2-.1.2c0 .1 0 .1-.1.2 0 .1-.1.2-.1.2 0 .1 0 .1-.1.2 0 .1-.1.2-.1.3s0 .1-.1.2c0 .1-.1.2-.1.3v.2c0 .1 0 .2-.1.3v.7c0 .1 0 .2-.1.3v4.3c0 .1 0 .1.1.2h0v.1c0 .1 0 .1.1.2h0s0 .1.1.2h0c0 .1 0 .1.1.1h0v.4s.1.1.1.2h0v.1s0 .1.1.1h0s.1.1.1.2h0v.1s0 .1.1.1h0s0 .1.1.1h0s0 .1.1.1l.1.1s.1.1.1.2h0s0 .1.1.1l.4.4s0 .1.1.1h0c0 .1.1.1.1.2v.1s0 .1.1.1h0l.7.7c.1.1.2.1.3.2h0l.2.2h.2c.1 0 .1.1.2.1h.2c.1 0 .1.1.2.1 0 0 .1 0 .1.1h.1c.1.1.2.1.3.2h.1c.1.1.2.1.3.2h.1c.1 0 .1.1.2.1h.2c.1 0 .1 0 .2.1h0c.1 0 .1.1.2.1h.1c.1 0 .2.1.3.1h0c.1 0 .3.1.4.1h0c.1 0 .2.1.4.1h0c.1 0 .2 0 .3.1h.3v.1l.6 1.5c3.3 9 12.3 16 22.6 17.3s21.3-5.6 25.8-14.8c.2-.4.4-.7.5-1 .4-.5.8-.9 1-1.4.7-.2.8-.8.7-1.4m-9-26.5h0"/><path d="M41.3 65.4h0m-2.9-2.7h0"/><path d="M38.4 62.7h0M37 59.8h0m-.1-.5h0m1.8 3.8h0"/></g><path d="M87 21.5c-.5-.6-1.1-1-1.7-1.3-.1 0-.2-.1-.4-.1-.1 0-.1-.1-.2-.1-.6-.2-1.1-.4-1.7-.4-3-.4-6.4.7-8.4 1.5-.1 0-.2.1-.3.1-.2.1-.3.1-.5.2-.3.1-.6.3-.9.4 0 0-.1 0-.1.1L72 21l-.2-.3-.1-.1-2-2.3-.1-.3-.2-.3-.6.1-.7.1c-.4-.2-.8-.3-1.3-.4-1-.1-2.3 0-3.7.4s-3.1 1-4.8 1.9c-3.4 1.7-7.3 4.3-10.9 7.7-1.3 1.2-2.5 2.4-3.6 3.6s-2 2.3-2.9 3.5a32.28 32.28 0 0 0-4 6.6c-.6 1.4-.9 2.6-1.1 3.7-.1.8-.1 1.4.1 2 0 .2.1.3.2.5.1.3.3.6.5.9l2.2 2.3.2.2c.1-.1.1-.2.2-.2h0l1.3-1.3c.1-.1.2-.1.2-.2l.1-.1c.1-.1.2-.1.2-.1l.1-.1c.1 0 .2-.1.3-.1 0 0 .1 0 .1-.1h.1c.1 0 .1-.1.2-.1 0 0 .1 0 .1-.1.1 0 .1-.1.2-.1s.1 0 .2-.1h.1c.1-.1.3-.1.4-.2h.4c.1 0 .1 0 .2-.1h0c.1 0 .1 0 .2-.1h.2c.1 0 .2 0 .2-.1h2c.3 0 .7.1 1.1.2.1 0 .2 0 .3.1 0 0 0-.1.1-.1.2-.4.4-.7.6-1.1 1.2-2.1 2.6-3.9 3.9-5.5.5-.5.9-1.1 1.4-1.5a33.79 33.79 0 0 1 5.7-4.8c.4-.3.8-.5 1.2-.8l1.5-.9c.4-.2.8-.4 1.1-.6.6-.3 1.1-.5 1.6-.7.1-.1.3-.1.4-.2.2-.1.4-.2.6-.2h-1.4c-.3 0-.6 0-.9.1-.1 0-.2 0-.3.1.7-.4 1.5-.7 2.2-.9.5-.1.9-.3 1.4-.3.6-.1 1.2-.2 1.7-.2h1.9a30.76 30.76 0 0 1 1.5.2c-.1-.2-.3-.3-.5-.5-.3-.2-.7-.4-1-.6-.1 0-.2-.1-.4-.1-.1 0-.2 0-.2-.1.2 0 .3 0 .5-.1.2 0 .3 0 .5-.1 1.3-.1 2.4 0 3.3.1 1 .2 1.7.5 1.7.5-.1-.3-.4-.5-.6-.7s-.4-.3-.5-.4c.3.1.7.2 1 .3.8.3 1.5.5 2.1.8.2.1.3.2.5.2 0 0 .1 0 .1.1a21.98 21.98 0 0 1 .8.5c-.1-.3-.3-.6-.5-.8l-.2-.2h.1s.1 0 .1.1c.2.1.6.2 1 .4h.1c.1 0 .1.1.2.1a.76.76 0 0 0 .4.2c.1.1.3.2.4.3.1 0 .1.1.2.1.2.1.3.2.4.3.2.1.3.3.4.4l.4.4a3.04 3.04 0 0 1 .5.7c.2.3.3.6.5 1v.1c.1-.1.2-.3.4-.5 1.8-1.8 6.6-7.9 3.7-11.6" fill="#141b26"/><g fill="#856249"><path d="M94.2 66.8h0s.1-.4-.2-.8h0v-.1l-.3-.3s-.1 0-.1-.1c-.1-.1-.3-.1-.5-.1h-.6v.2c0 .1.1.2.1.3v.1c-.1.2-.3.6-.8 1.2l-.3.3c-1.4 1.4-4.4 3.5-10.7 4.6-2.1.3-4.1.3-5.8.1-2.5-.3-4.3-1.1-5.2-2.2-.1-.1-.1-.2-.2-.3 0-.1-.1-.1-.1-.2v-.1c-.4-.7-.5-1.4-.5-2.1 0-.8.3-1.7.7-2.3.4-.5.8-.9 1.4-1.1.3-.1.6-.1.9-.1h.2c.2 0 .5.1.8.1h.1c1.2.1 3.1.3 5.3.2 4.1-.3 9.6-1.6 14.5-6h0c0-.4 0-1-.5-1.6l-.3-.3c-.1 0-.1-.1-.2-.1s-.1-.1-.2-.1c-.1-.1-.2-.1-.2-.2h0c0-.1-.1-.1-.1-.2-1.3-1.9-3-3.1-3.8-3.6-.3-.2-.5-.4-.5-.4-1.5-.9-1.7-1.2-1.6-3.8.1-.9.1-2.1.3-3.7v-1.9c0-.1 0-.3-.1-.4v-.6c0-.1 0-.2-.1-.2v-.3c0-.1 0-.1-.1-.2h0v-.2c0-.1-.1-.2-.1-.3v-.1c-.1-.1-.1-.2-.2-.3h0c0-.1-.1-.1-.1-.2l-.3-.3V39c0-.1 0-.2-.1-.4h0v-.2c0-.1-.1-.2-.1-.3V38c0-.1-.1-.2-.1-.3 0 0 0-.1-.1-.2 0-.1-.1-.2-.1-.2 0-.1 0-.1-.1-.2 0-.1-.1-.2-.1-.2 0-.1-.1-.1-.1-.2s-.1-.2-.1-.2c0-.1-.1-.1-.1-.2-.1-.1-.1-.2-.2-.3l-.2-.2c-.1-.1-.1-.2-.2-.3h0l-.3-.3s-.1-.1-.2-.1h0l-.1-.1s-.1-.1-.3-.1c0 0-.1 0-.1-.1-.2-.1-.6-.2-.9-.3h-.1c-.3-.1-.7-.2-1-.2-.1 0-.3 0-.4-.1h-1.2c-.4 0-.8 0-1.1.1.1-.1.3-.3.6-.4.3-.2.6-.3.6-.3-.2 0-.3 0-.5.1h-.4c-.9.2-1.7.5-2.1.7-.1 0-.1.1-.2.1h0-.1c.3-.6.8-1 1.2-1.1.1 0 .1-.1.2-.1h.3-.4a6.14 6.14 0 0 0-2.5.8c-.5.3-.9.6-1.3.9-.1 0-.2 0-.3.1-1 .2-2.2.5-3.5.9-.5.1-.9.3-1.4.5-.4.1-.7.3-1.1.4-.3.1-.5.2-.8.3-1.9.9-3.8 2-5.4 3.5l-.8.8c-.1.1-.1.2-.2.2a4.44 4.44 0 0 0-.8 1.1l-.6.9c-.4.6-.7 1.3-.9 2-.1.4-.2.7-.4 1.1 0 .1-.1.2-.1.3v.1c-.1.4-.2.9-.2 1.3v.3c0 .2-.1.5-.1.7v2.1c0 .3 0 .5.1.8v.6c0 .3.1.6.1.9v.2c0 .3.1.5.1.8v-1.2c0-.3.1-.6.2-.9 0-.1.1-.2.1-.2v-.1c.1-.1.1-.3.2-.4 0 .1 0 .2.1.3h0v1.3c0 .9.1 2.1.3 3 0 0 0-1.8.3-2 0 0 .5 3.2 1 4.5.1.2.1.3.2.4v-.3l-.1-1.8v-.2c.4.7.8 1.5 1.2 2.3.1.2.3.4.4.7-.9.8-1.7 1.9-2.3 3.2-.1.2-.2.4-.3.7 0 .1-.1.3-.1.4v.1c0 .1-.1.2-.1.3v.1c0 .1 0 .2-.1.3v.1c0 .1-.1.3-.1.4h0c0 .1 0 .3-.1.4v3.1c0 .1 0 .2.1.3v.2c0 .1 0 .2.1.3v.2c0 .1 0 .2.1.3 0 .1 0 .1.1.2 0 .1.1.2.1.3s0 .1.1.2c0 .1.1.2.1.3 0 0 0 .1.1.1.1.3.3.6.4.9 0 0 0 .1.1.1.1.1.1.2.2.3 0 .1.1.1.1.2.1.1.1.2.2.3 0 .1.1.1.1.2.1.1.1.2.2.3 0 .1.1.1.1.2.1.1.1.2.2.3 0 .1.1.1.1.2.1.1.1.2.2.3 0 .1.1.1.1.2l.8.8s-.1-.1-.2-.3h0s0-.1-.1-.1h0s0-.1-.1-.2h0c0-.1-.1-.1-.1-.2a5.44 5.44 0 0 1-.4-2c.1.1.2.2.2.3.1.2.2.4.4.7 0 .1.1.2.1.3.2.4.5.8.7 1.2.3.5.7 1 1 1.5h0s-.4-.9-.6-1.5c0-.2-.1-.3 0-.4l.2.2c.1.1.2.2.2.3v.1c0 .1.1.1.1.2h0c.1.1.1.2.2.2.6.8 1.4 1.7 1.9 2.3.2.2.3.3.5.4l-1-1.2c1.8 1.5 9.4 3.4 16.8 1.3.9-.3 1.8-.6 2.7-1a11.94 11.94 0 0 0 1.6-.8h.1c.4-.2.7-.4 1.1-.6h0c.3-.2.5-.3.8-.5.4-.3.9-.6 1.3-1h0l.1-.1c.4-.4.8-.8 1.2-1.1.5-.5.9-1 1.3-1.6h0c.1-.1.2-.3.3-.4h0l.1-.1c.1-.2.3-.4.4-.6l.1-.1c.1-.1.1-.2.2-.3 0-.1.1-.2.1-.2 0-.1.1-.2.1-.2a.76.76 0 0 0 .2-.4c0-.1.1-.1.1-.2.1-.1.1-.2.2-.3 0-.1.1-.1.1-.2h0c.1-.1.1-.3.2-.4h0l.6-.6s0-.1.1-.1c.3-.8.4-1.2.4-1.6m-44.4-5.3v-.1c-.1-.5-.2-1-.2-1.5v-.1c-.1 0-.2.1-.3.3 0 .1-.1.1-.1.2-.3.5-.5 1.1-.5 1.1 0-.2 0-.4.1-.7v-.1c0-.2.1-.5.1-.7v-.1c0-.3.1-.5.1-.8v-.3c0-.2.1-.4.1-.6s.1-.3.1-.5h0v-1h-.1l-.1.1v.1c0 .1-.1.1-.1.2h0c.2 0 .1.1.1.2h0v.1c0 .1-.1.1-.1.2h0c0 .1-.1.2-.1.2-.1.2-.2.4-.2.6 0 .1 0 .1-.1.2 0 .1-.1.2-.1.3h0v-2.1c0-.1 0-.2.1-.3h0v-.2c0-.1.1-.3.1-.4v-.2c.1-.2.1-.4.2-.6h0c.1-.2.1-.4.2-.5h0c0-.1.1-.1.1-.2h0c0-.1.1-.2.1-.3h0s0-.1.1-.2h0s0-.1.1-.1c0-.1.1-.1.1-.2v-.1l.5-.8s0-.1.1-.1h0c.1-.1.1-.2.2-.3s.1-.3.2-.4c.1-.2.3-.5.3-.6s.1-.1.1-.1h0s-.2-.1-.4-.3c-.3-.2-.7-.4-1.1-.6-.2-.1-.3-.1-.5-.2s-.4-.2-.6-.2c-.1 0-.1 0-.2-.1-.2-.1-.4-.1-.6-.2h0c-.1 0-.3-.1-.4-.1s-.2 0-.3-.1h-1c-.3 0-.6 0-.9.1h-.1c-.6.1-1.1.2-1.6.4-.2.1-.3.1-.5.2 0 0-.1 0-.1.1-.1 0-.1.1-.2.1l-1.4.9c-.4.3-.7.7-1 1l-.3.3c-.1.1-.2.3-.3.4l-.5.8c0 .1-.1.2-.1.3v.1a8.3 8.3 0 0 0-.6 2.1v3.2c0 .1 0 .1.1.2 0 .1 0 .1.1.2 0 .1 0 .1.1.2h0v.1c0 .1 0 .1.1.2 0 .1 0 .1.1.2v.2c0 .1 0 .1.1.2 0 .1.1.1.1.2l.1.1c0 .1.1.1.1.2l.1.1c0 .1.1.1.1.2l.1.1c0 .1.1.1.1.2l.1.1c0 .1.1.1.2.2l1.3 1.3c.1.1.2.1.2.2h.1c.1.1.2.1.2.2h.1c.1.1.2.1.3.2h.1c.1.1.2.1.3.2h0c.1.1.2.1.3.1h0c.1 0 .2.1.3.1h0c.1 0 .2.1.3.1h0c.1 0 .2.1.3.1h.2c.1 0 .1 0 .2.1h0c.1 0 .2.1.4.1h0c.1 0 .2 0 .4.1h0c.4.1.8.1 1.2.1h.7c.2 0 .4 0 .5-.1.2 0 .3-.1.5-.1.2-.1.5-.1.7-.2.7-.2 1.3-.5 1.7-.8l-.5-2.2c.2 0 .2-.1.2-.2"/><path d="M82.1 35.2h0"/></g><path d="M67.5 20.4l-.1-1.1.6-1.2h.2c-.4-.2-.8-.3-1.3-.4-1-.1-2.3 0-3.7.4s-3.1 1-4.8 1.9c-3.4 1.7-7.3 4.3-10.9 7.7-1.3 1.2-2.5 2.4-3.6 3.6s-2 2.3-2.9 3.5a32.28 32.28 0 0 0-4 6.6c-.6 1.4-.9 2.6-1.1 3.7-.1.8-.1 1.4.1 2 0 .2.1.3.2.5.1.3.3.6.5.9l2.2 2.3.2.2c.1-.1.1-.2.2-.2h0l1.3-1.3c.1-.1.2-.1.2-.2l.1-.1c.1-.1.2-.1.2-.1l.1-.1c.1 0 .2-.1.3-.1 0 0 .1 0 .1-.1h.1c.5-1.5 1.3-3.1 2.4-4.8 1.3-2.1 2.9-4.2 4.8-6.3 1.2-1.3 2.5-2.7 4-4a69.01 69.01 0 0 1 5.6-4.5c1.3-.9 2.5-1.7 3.7-2.4.1-.1.2-.1.3-.2.3-.2.6-.4 1-.5.7-.4 1.4-.7 2-1l-.3-.4-.1-.1-2.7-3.3v-2l1.6-.5 3.5 1.6" fill="#3578ad"/><path d="M94.2 66.8h0s.1-.4-.2-.8h0v-.1l-.3-.3s-.1 0-.1-.1c-.1-.1-.3-.1-.5-.1h-.6v.2c0 .1.1.2.1.3v.1c-.1.2-.3.6-.8 1.2l-.3.3c-1.4 1.4-4.4 3.5-10.7 4.6-2.1.3-4.1.3-5.8.1-2.5-.3-4.3-1.1-5.2-2.2-.1-.1-.1-.2-.2-.3 0-.1-.1-.1-.1-.2v-.1c-.4-.7-.5-1.4-.5-2.1 0-.8.3-1.7.7-2.3.4-.5.8-.9 1.4-1.1.3-.1.6-.1.9-.1h.2c.2 0 .5.1.8.1h.1c1.2.1 3.1.3 5.3.2 4.1-.3 9.6-1.6 14.5-6h0c0-.4 0-1-.5-1.6l-.3-.3c-.1 0-.1-.1-.2-.1s-.1-.1-.2-.1c-.1-.1-.2-.1-.2-.2h0c0-.1-.1-.1-.1-.2-1.3-1.9-3-3.1-3.8-3.6-.3-.2-.5-.4-.5-.4-1.5-.9-1.7-1.2-1.6-3.8.1-.9.1-2.1.3-3.7v-1.9c0-.1 0-.3-.1-.4v-.6c0-.1 0-.2-.1-.2v-.3c0-.1 0-.1-.1-.2h0v-.2c0-.1-.1-.2-.1-.3v-.1c-.1-.1-.1-.2-.2-.3h0c0-.1-.1-.1-.1-.2l-.5-.5c-.1-.1-.2-.1-.2-.1h-.1c-.1 0-.1-.1-.2-.1h-1.5c-.2 0-.3.1-.5.2H82c-.1 0-.1.1-.2.1h-.1c-.1 0-.1.1-.2.1h-.1c-.1 0-.1.1-.2.1h-.1c-.1 0-.1.1-.2.1h-.1c-.1 0-.1.1-.2.1h0c-.1 0-.1.1-.2.1h0c-.1.1-.3.2-.4.3s-.2.2-.3.2h-.1c-.1.1-.2.2-.4.2h-.1c-.1.1-.2.1-.4.2h-.1c-.1.1-.2.1-.4.2h-.1c-.1.1-.3.1-.4.2h-.1c-.1 0-.3.1-.4.1h0c-.1 0-.3.1-.4.1H76c-.4 0-.8 0-1.3-.1-.1 0-.3 0-.4-.1h-.1c-.4-.1-.7-.2-1.1-.2-.2 0-.3-.1-.5-.1-.3-.1-.5-.1-.8-.2H71c-.1 0-.2 0-.3-.1h-3.3c-.1 0-.2 0-.3.1H67c-.1 0-.2.1-.3.1h-.1a.76.76 0 0 0-.4.2c-1 .6-1.9 1.4-2.7 2.4-.2.3-.5.7-.7 1-.2.4-.4.7-.5 1.1 0 .1-.1.2-.1.3-.1.2-.1.4-.2.6v.1c-.1.2-.1.5-.2.7 0 .2-.1.5-.1.7v1.9c0 .3.1.5.1.7 0 .1 0 .2.1.3 0 .1 0 .2.1.3h0c.2.6.4 1.2.7 1.7 1.1 2 3 3.2 4.4 3.8.5.2 1.1.4 1.7.6h-.1c-.1 0-.2.1-.4.1-.2.1-.4.1-.7.2l-.9.3c-.9.4-1.9.9-2.8 1.6l-.3.3c-.2.2-.4.3-.5.5l-.4.4s0 .1-.1.1c-.1.1-.2.2-.2.3-.1.1-.1.2-.2.3-.5.9-.8 2-.7 3.3h0v-.4c0-.1 0-.1.1-.2h0c0-.1 0-.1.1-.2h0c0-.1.1-.1.1-.2h0c0-.1.1-.1.1-.2h0c.1-.1.1-.2.2-.3 0 0 0-.1.1-.1h0c.1-.1.1-.2.2-.2 0-.1.1-.1.2-.2l.5-.5s-1.2 2.7-.7 4.8h0v-.9c0-.1 0-.2.1-.2 0-.1 0-.2.1-.2v-.1c0-.1 0-.1.1-.2h0c0-.1.1-.2.1-.3v-.1c0-.1.1-.2.2-.2h0s-.1.7-.1 1.5v.7c.1-.9.2-1.7.4-2.4-.2.7-.4 1.5-.4 2.4h0v1.7c.1 1 .3 2 .7 3.1 0 0-.4-1.2.2-2.5 0 .1.1.2.2.3 0 .4.1.9.2 1.5.1 1 .6 3.9 2.5 5.9 0 0-.7-1-.6-2.2.1.2.2.3.2.4.3.6 1 1.8 1.7 2.6 0 0-.6-1.1-.5-1.4 0 0 1.9 2.4 2.5 2.6l-.8-1.3c2.8 2 6.6 2.8 11.4 1.5.8-.2 1.7-.5 2.5-.9a11.94 11.94 0 0 0 1.6-.8h.1c.4-.2.7-.4 1.1-.6h0c.3-.2.5-.3.8-.5.4-.3.9-.6 1.3-1h0l.1-.1c.4-.4.8-.8 1.2-1.1.5-.5.9-1 1.3-1.6h0c.1-.1.2-.3.3-.4h0l.1-.1c.1-.2.3-.4.4-.6l.1-.1c.1-.1.1-.2.2-.3 0-.1.1-.2.1-.2 0-.1.1-.2.1-.2a.76.76 0 0 0 .2-.4c0-.1.1-.1.1-.2.1-.1.1-.2.2-.3 0-.1.1-.1.1-.2h0c.1-.1.1-.3.2-.4h0l.6-.6s0-.1.1-.1c.7-.4.8-.8.8-1.2m-44.7-7c-.1 0-.2.1-.3.3 0 .1-.1.1-.1.2-.3.5-.5 1.1-.5 1.1 0-.2 0-.4.1-.7v-.1c0-.2.1-.5.1-.7v-.1c0-.3.1-.5.1-.8v-.3c0-.2.1-.4.1-.6s.1-.3.1-.5h0v-1H49l-.1.1v.1c0 .1-.1.1-.1.2h0c.3 0 .2.1.2.2h0v.1c0 .1-.1.1-.1.2h0c0 .1-.1.2-.1.2-.1.2-.2.4-.2.6 0 .1 0 .1-.1.2 0 .1-.1.2-.1.3h0v-2.1c0-.1 0-.2.1-.3h0v-.2c0-.1.1-.3.1-.4v-.2c.1-.2.1-.4.2-.6h0c.1-.2.1-.4.2-.5h0c0-.1.1-.1.1-.2h0c0-.1.1-.2.1-.3h0s0-.1.1-.2h0s0-.1.1-.1c0-.1.1-.1.1-.2v-.1s-.1 0-.1-.1h0l-.8-.3c-.2 0-.4-.1-.6-.1h-1.5c-.1 0-.2 0-.3.1h-.1c-.1 0-.2.1-.4.1 0 0-.1 0-.1.1-.1 0-.1.1-.2.1h-.1c-.1 0-.1.1-.2.1s-.1.1-.2.1-.1.1-.2.1l-.1.1c-.1.1-.2.2-.3.2l-.4.4s0 .1-.1.1h0c-.1.2-.3.4-.4.6v.1c0 .1-.1.2-.1.3v.1c0 .1-.1.2-.1.3h0v.1c0 .1 0 .2-.1.3v1.2c0 .2.1.4.1.6s.1.3.2.5c.1.3.3.5.4.8.3.5.8.9 1.3 1.3.3.2.6.3.9.5.3.1.6.2 1 .2h1.1c.2 0 .3-.1.5-.1h0c.1 0 .1 0 .2-.1.2-.1.4-.1.6-.2h0s.1 0 .1-.1h0c-.1-.5-.2-1-.2-1.5l.2.5" fill="#fce9c8"/><path d="M68.2 20.8h0" fill="#4d94c3"/><path d="M92.5 65.7v-.2c-.1-.4-.3-.8-.5-1-.2-.3-.4-.5-.4-.5 0-.1.1-.2.1-.3s.1-.3.1-.4a4.09 4.09 0 0 0-.4-2.2c0-.1-.1-.1-.1-.2-.2.1-.3.2-.5.3-3 2-6.3 3.3-9.9 3.9-2.5.4-5.1.4-7.8.1h0s-1.6.2-2.1 1.8h0l-.1 1c0 1.4.7 2.3 1.4 2.8.8.3 1.7.5 2.7.6 1.8.2 3.9.2 6-.2h0c2.8-.4 6.8-1.9 9.6-3.8a11.51 11.51 0 0 0 1.7-1.4h0c.2-.1.2-.2.2-.3" fill="#fff"/><path d="M87.1 52.1c-1.5-.9-1.7-1.2-1.6-3.8l.3-3.7v-1.9c0-.1 0-.3-.1-.4v-.6c-.2-.3-.5-.6-.8-.9h-.1l-.2-.2c-.5-.3-1-.4-1.5-.5-.3 0-.6-.1-.9 0h-.4c-.4 0-.8.1-1.2.3-.1.1-.3.2-.4.3s-.2.2-.3.2h-.1c-.1.1-.2.2-.4.2h-.1c-.1.1-.2.1-.4.2h-.1c-.1.1-.2.1-.4.2h-.1c-.1.1-.3.1-.4.2h-.1c-.1 0-.3.1-.4.1h0c-.1 0-.3.1-.4.1h-.8c-.4 0-.8 0-1.3-.1-.1 0-.3 0-.4-.1h-.1c-.4-.1-.7-.2-1.1-.2-.2 0-.3-.1-.5-.1-.3-.1-.5-.1-.8-.2h-.2c-.2 0-.4 0-.6.1h0c-.6.1-1.3.2-1.9.4h-.1c-.1 0-.2.1-.3.1-.1.1-.3.1-.4.2-.9.4-1.8.9-2.6 1.6l-.9.9-1.2 1.5s0 .1-.1.1c-.2.3-.4.6-.5.9-.1.1-.1.2-.2.3h0c-.2.3-.3.7-.4 1.1v.3c-.1.2-.1.3-.1.5s-.1.3-.1.5v.1c0 .1 0 .2-.1.3-.1.4-.1.8-.1 1.2v.3c.2.6.4 1.2.7 1.7 1.1 2 3 3.2 4.4 3.8l1.7.6.2-.2s.1 0 .1-.1c.1-.1.2-.1.2-.2 0 0 .1 0 .1-.1.1-.1.2-.1.2-.2 0 0 .1 0 .1-.1.1-.1.2-.1.3-.2 0 0 .1 0 .1-.1.1-.1.2-.1.3-.2 0 0 .1 0 .1-.1.1-.1.2-.1.3-.2 0 0 .1 0 .1-.1.1-.1.2-.1.3-.2 0 0 .1 0 .1-.1.1-.1.2-.1.3-.2 0 0 .1 0 .1-.1.1 0 .2-.1.3-.1 0 0 .1 0 .1-.1.1 0 .2-.1.3-.1s.1 0 .2-.1c.1 0 .2-.1.3-.1s.1-.1.2-.1.2-.1.3-.1.1-.1.2-.1.2-.1.3-.1.2-.1.2-.1c.1 0 .2-.1.3-.1s.2-.1.3-.1.2-.1.3-.1.2-.1.3-.1.2-.1.3-.1.2-.1.3-.1.2-.1.3-.1.2-.1.3-.1h.2c.5-1.1 1.8-4 4.1-4.3.2 0 .5 0 .7-.1h.2c0-.2 0-.3-.1-.5-.1-1.2.3-2.2.8-2.3.4 0 .7.6.8.8.2.4.3.8.3 1.4 0 .5 0 .9-.1 1.3 0 0 .1.1.1.2.5.7.6 1.6.6 2.2.2 0 .4 0 .6-.1h.3c.3 0 .5 0 .8-.1h0c.6 0 1.2-.1 1.9-.1-.6.3-.8.2-.8.2m5.8 17c-1 .9-2.1 1.6-3.1 2.2-.5.3-1 .5-1.5.8-1.1.5-2.2.8-3.2 1.1-2.1.5-3.6.5-3.6.5 1.2.6 2.6.6 3.6.5l1.2-.2c0 .4-.1.8-.2 1.2l-.3 1.1-.6 1.1s0 .1-.1.1h.1l1.1-.6.8-.5c.4-.3.9-.6 1.3-1h0l.1-.1 1.2-1.1c.5-.5.9-1 1.3-1.6h0c.1-.1.2-.3.3-.4h0l.1-.1c.1-.2.3-.4.4-.6l.1-.1c.1-.1.1-.2.2-.3 0-.1.1-.2.1-.2 0-.1.1-.2.1-.2a.76.76 0 0 0 .2-.4c0-.1.1-.1.1-.2.1-.1.1-.2.2-.3 0-.1.1-.1.1-.2h0c.1-.1.1-.3.2-.4-.1-.3-.1-.2-.2-.1M67.7 57.9l-.9.3c-.9.4-1.9.9-2.8 1.6l-.3.3c-.2.2-.4.3-.5.5l-.4.4s0 .1-.1.1c-.1.1-.2.2-.2.3-.1.1-.1.2-.2.3-.5.9-.8 2-.7 3.3h0v-.4c0-.1 0-.1.1-.2h0c0-.1 0-.1.1-.2h0c0-.1.1-.1.1-.2h0c0-.1.1-.1.1-.2h0c.1-.1.1-.2.2-.3 0 0 0-.1.1-.1h0c.1-.1.1-.2.2-.2 0-.1.1-.1.2-.2l.5-.5s-1.2 2.7-.7 4.8h0v-.9c0-.1 0-.2.1-.2 0-.1 0-.2.1-.2v-.1c0-.1 0-.1.1-.2h0c0-.1.1-.2.1-.3v-.1c0-.1.1-.2.2-.2h0s-.1.7-.1 1.5v.7c.1-.9.2-1.7.4-2.4.1-.2.1-.4.2-.6v-.1c.1-.2.1-.4.2-.5v-.1c.1-.2.2-.4.2-.5V63c.2-.4.4-.7.6-1v-.1c.1-.1.2-.2.2-.3 0 0 0-.1.1-.1 0 0 0-.1.1-.1.1-.1.2-.3.3-.4v-.1c.1-.1.2-.3.3-.4h0c.1-.2.3-.3.4-.5l.4-.4c.2-.2.5-.4.7-.6.6-.6 1.1-.9 1.3-1-.1 0-.2.1-.4.1.2-.3 0-.2-.3-.2M83.6 52v-.2c-.1-.4-.5-1.3-2-1.2-1.6.2-2.1 1.5-2.3 1.9v.1c.2-.2.6-.2.9.1a.78.78 0 0 1 .4.4h0c.1.2.2.4.1.6 0 0 0 .1-.1.1 0 0 .1 0 .2.1.4.1 1.7.4 2.4-.5l.1-.1a.55.55 0 0 1-.3-.5v-.3c.2-.4.4-.6.6-.5m-8 11.8l-2.7.5h.1c1.2.1 3.1.3 5.3.2 4.1-.3 9.6-1.6 14.5-6h0c0-.4 0-1-.5-1.6l-.3-.3h-.1c-.1-.1-.2-.1-.3-.2s-.2-.1-.2-.2h0c-.3.4-.7.9-1.1 1.2l-.4.4c-1.4 1.2-3.1 2.3-5 3.1-3.1 1.4-6.6 2.3-9.3 2.9m-26.1-7.2l-.1.1v.1c0 .1-.1.1-.1.2h0c-.2 0-.3.1-.3.2h0v.1c0 .1-.1.1-.1.2h0c0 .1-.1.2-.1.2-.1.2-.2.4-.2.6 0 .1 0 .1-.1.2 0 .1-.1.2-.1.3h0v-2.1c0-.1 0-.2.1-.3h0v-.2c0-.1.1-.3.1-.4v-.2c.1-.2.1-.4.2-.6h0c.1-.2.1-.4.2-.5h0c0-.1.1-.1.1-.2h0c0-.1.1-.2.1-.3h0s0-.1.1-.2h0s0-.1.1-.1c0-.1.1-.1.1-.2v-.1s-.1 0-.1-.1h0l-.8-.3c-.2 0-.4-.1-.6-.1h-1.5c-.1 0-.2 0-.3.1h-.1c-.1 0-.2.1-.4.1 0 0-.1 0-.1.1-.1 0-.1.1-.2.1h-.1c-.1 0-.1.1-.2.1s-.1.1-.2.1-.1.1-.2.1l-.1.1c-.1.1-.2.2-.3.2l-.4.4s0 .1-.1.1h0c-.1.2-.3.4-.4.6v.1c-.1.1-.1.2-.1.3v.2c0 .1.1.2.1.3h0c0 .1.1.2.1.3.1.3.2.5.3.7 0 0 0 .1.1.1h0c.1.2.2.3.3.4.1.2.2.3.3.4v.2c-.1-.5-.1-.8-.1-1.1h0v-.6c0 .1 0 .2.1.2 0 .1.1.2.1.3h0c.2.5.4.9.6 1.2.2.4.4.6.5.8 0 0 0 .1.1.1l.1.1c.1 0 .1-.4.1-.7v-.9c.1.3.1.5.2.7h0c.3.8.7 1.4.9 1.7h0c0 .1.1.1.1.2 0 0 0 .1.1.1 0 0 0 .1.1.1v-.3c0-.2-.1-.4-.1-.6v-1.4c0 .1.1.2.1.3s0 .1.1.2h0c0 .1.1.2.1.2.1.1.1.3.2.4.1.2.1.3.2.4 0 .1.1.1.1.2.1.1.1.2.1.2 0 .1.1.1.1.2l.1.1s0 .1.1.1c0 .1.1.1.1.1h0v-.1c0-.2.1-.5.1-.7v-.1c0-.3.1-.5.1-.8v-.3c0-.2.1-.4.1-.6s.1-.3.1-.5h0v-.9c.5.4.5.3.5.3h0m33.4 11.5c.4-.1.7-.2 1-.4.5-.2.8-.4.8-.4 0-.1-.3 0-.9.1-.3.1-.6.1-1 .2-.2 0-.4.1-.6.1s-.5.1-.7.1c-.5.1-1.1.1-1.6.2-.3 0-.6 0-.9.1h-1c-1.3 0-2.8 0-4.3-.3-.8-.1-1.8-.5-2.6-.9h0c.4-1.6 2.1-1.8 2.1-1.8h0-.1c-.2 0-.4-.1-.6-.1H72c-1-.1-1.5.8-1.7 1.1 0 .1-.1.1-.1.2-.1.3-.2.7-.3 1.1 0 .7.1 1.6.7 2.2.4.5 1 .9 1.9 1.2-.7-.5-1.4-1.4-1.4-2.8.8.4 1.8.6 2.6.7 1.6.3 3.1.3 4.5.2.3 0 .7-.1 1-.1s.6-.1.9-.1l1.7-.3c.3 0 .5-.1.7-.2 0 0 .2 0 .4-.1" fill="#efcfa5"/><g fill="#59473c"><path d="M81.6 49.7c.8 0 1.4.3 1.8.7.1-.4.1-.8.1-1.3s-.1-1-.3-1.4c-.1-.2-.4-.8-.8-.8-.5 0-.9 1-.8 2.3v.5m1.4 3.1c0 .2.1.4.2.5.2.1.4-.1.6-.5v-.1c.1-.3 0-.7-.2-.7-.2-.1-.4.1-.6.5v.3m-3.7.6c.1.1.2.3.4.4.4.2.8.2 1 .1l.1-.1a.47.47 0 0 0-.1-.6h0c-.1-.1-.2-.3-.4-.4-.4-.2-.7-.2-.9-.1l-.1.1c-.2.2-.2.4 0 .6h0m13.7 5h0c-.1 0-.1 0 0 0h0"/><path d="M92.5 66.1h0c-.5.5-1.1 1-1.8 1.4-2.8 1.9-6.8 3.4-9.6 3.8h0c-2.1.3-4.2.4-6 .2-1-.1-2-.4-2.7-.6-.9-.3-1.5-.7-1.9-1.2-.6-.7-.8-1.5-.7-2.2 0-.4.1-.8.3-1.1 0-.1 0-.1.1-.2.2-.4.7-1.2 1.7-1.1h.5c.2 0 .4.1.6.1h.1c2.7.3 5.4.3 7.8-.1 3.6-.6 7-1.8 9.9-3.9.2-.1.3-.2.5-.3l1.6-2.4c-4.9 4.4-10.4 5.7-14.5 6-2.3.1-4.2 0-5.3-.2H73c-.4 0-.6-.1-.8-.1H72c-.3 0-.6 0-.9.1-.6.2-1 .6-1.4 1.1-.4.6-.7 1.4-.7 2.3 0 .7.2 1.4.5 2.1v.1c0 .1.1.1.1.2.1.1.1.2.2.3.9 1.1 2.7 1.9 5.2 2.2 1.7.2 3.6.2 5.8-.1 6.3-1.1 9.3-3.2 10.7-4.6l.3-.3c.4-.8.6-1.3.7-1.5h0"/></g><path d="M72.5 44.3c-.2-.1-.4-.2-.6-.2-.1 0-.3-.1-.4-.1h-.2c-.7-.1-1.4.1-1.4.1-.1 0-.3.1-.4.1-1 .3-1.7.8-2.2 1.4-.4.5-.6 1-.8 1.5v.1c0 .1-.1.3-.1.4-.1.4-.1.8-.1 1.2v.7c.2-.4.4-.7.5-1.1.5-.8 1-1.5 1.5-2 1-1 2-1.6 2.8-1.8.8-.3 1.4-.3 1.4-.3m12-1.4h0c-.1-.2-.3-.3-.4-.4-.4-.3-.9-.4-1.6-.2 0 0-.9.2-1.4.8 0 0 1.5-.6 3.1.5.1.1.3.2.4.4.1.1.3.3.4.5 0 0-.1-.7-.5-1.3v-.3" fill="#e1b27e"/><path d="M72.7 53.9c.6-.2 1.2-.3 1.9-.5.1-.5.1-1.2.1-1.9-.2-1.6-.9-2.8-1.6-2.8-.7.1-1.1 1.5-.9 3.1 0 .8.2 1.6.5 2.1" fill="#59473c"/><path d="M69.4 17.8l-1.5.3.3 2.7-4-2-1.6.5 4.8 5.5h.1c.1-.1.3-.2.4-.3.1 0 .1-.1.2-.1.2-.1.4-.3.7-.4l-2-2.3 3.3 1.6c.1-.1.2-.1.3-.2l-.3-2.4 1.5 1.7c.1-.1.3-.1.4-.2h.2c.1 0 .1-.1.2-.1.2-.1.4-.2.5-.2l-3.5-4.1" fill="#face55"/><g fill="#4d94c3"><path d="M67.9 18.2h0"/><path d="M67.9 18.1h.2c-.4-.2-.8-.3-1.3-.4-1-.1-2.3 0-3.7.4s-3.1 1-4.8 1.9c-3.4 1.7-7.3 4.3-10.9 7.7-1.3 1.2-2.5 2.4-3.6 3.6l4.5 5.5c1.2-1.3 2.5-2.7 3.9-4 1.9-1.7 3.8-3.3 5.8-4.6 1.9-1.3 3.7-2.4 5.5-3.3l-.8-3.5v-2l1.6-.5 3.2 1.6-.1-1.1.5-1.3"/></g><path d="M67.9 18.1l-.6 1.2.1 1.1.8.4-.3-2.7m-1.1 3.5l3.3 1.6-1.3.7-2-2.3m3.3-.9l.3 2.4 1.2-.6-1.5-1.8" fill="#141b26"/><path d="M82.6 19.8h.6c.6 0 1.1.1 1.6.2h.1 0c-.1 0-.1-.1-.2-.1-.6-.2-1.1-.4-1.7-.4-3-.4-6.4.7-8.4 1.5-.1 0-.2.1-.3.1-.2.1-.3.1-.5.2-.3.1-.6.3-.9.4 0 0-.1 0-.1.1-.2.1-.3.2-.5.2-.1 0-.1.1-.2.1h-.2c-.1.1-.2.1-.4.2h0-.2l-.6.3c-.1.1-.3.1-.4.2h0c-.1.1-.2.1-.3.2h0c-.3.2-.6.4-1 .5 0 0-.1 0-.1.1h-.2c-.2.1-.4.3-.7.4-.1 0-.1.1-.2.1-.2.1-.3.2-.4.3h-.1c-.4.3-.8.5-1.2.8l-2 1.4c-.1.1-.2.1-.3.2l-5 4.2c-1.7 1.5-3.3 3.1-4.8 4.7l-2.1 2.2c-1.2 1.2-1.8 2-1.8 2l.3-.3c-.1.2-.3.3-.4.5 2.5-2.7 5.3-5.5 8.3-8.1 1.8-1.6 3.7-3.1 5.7-4.5h0c.9-.6 1.7-1.2 2.6-1.8.3-.2.6-.4.9-.5.1-.1.3-.2.4-.3.1 0 .2-.1.2-.1.2-.1.3-.2.5-.3s.3-.2.5-.3c.1 0 .2-.1.2-.1l.6-.3c.1-.1.2-.1.3-.2h0c.4-.2.7-.4 1.1-.6h.1c.1 0 .1-.1.2-.1s.2-.1.2-.1h.1c.1 0 .1 0 .2-.1h0c.2-.1.3-.2.5-.2h.1c.1 0 .1 0 .2-.1.2-.1.4-.2.5-.3 0 0 .1 0 .1-.1h.1c.1 0 .1 0 .2-.1l.6-.3c.2-.1.4-.2.6-.2 1-.4 2-.8 2.9-1.1 1.9-.1 3.4-.4 4.7-.5" fill="#fff"/><path d="M140.7 49.9h0zm112.5 10.2h0c3.4 0 5.8-2.3 5.9-5.7 0-1.7-.5-3.2-1.4-4.3-.9-1.2-2.2-1.8-3.8-1.8h0c-2.1 0-4 1.6-5.9 4.8l-.2.3-.1-.3-1.5-4c-.1-.4-.4-.6-.8-.6-.2 0-.5.1-.7.2-.2.2-.4.3-.4.6h0c-1.9 5.9-3.5 8.8-4.8 8.8-.2 0-.3-.1-.5-.2-.3-.4-.3-1.3-.1-2.6.1-.9.2-2 .1-3.1-.1-2.1-1.3-3.4-3.1-3.4-2.4 0-4 2.6-4.7 4.1l-.2.5v-.5c-.2-1.9-.8-4.1-2.8-4.1-2.3 0-4.1 2.7-5.2 5l-.3.6v-.7c.1-3.1.2-4.9.3-5.4s0-.8-.1-1c-.2-.2-.4-.2-.9-.2-.7 0-1.1.5-1.7 2-.9 2.5-3.3 8.3-5.3 8.3-.4 0-.7-.1-.9-.4-.8-.9-.5-3.4 0-6.8v-.3c.2-1.6-.1-2-1-2.1h-.3c-.7 0-1 .7-1.7 2.6-1.2 3.3-2.7 6.9-4.5 6.9h-.2c-.9-.2-.9-1.5-.9-3.3 0-1 0-2-.1-3-.3-1.7-1.3-2.8-2.7-2.8-2.8 0-4.7 3.6-5.5 5.7l-.2.5-.1-.5a28.28 28.28 0 0 1-.3-4.1v-.1c5.2-6.6 7.5-11.3 7.6-15.3 0-2.6-1.2-4.1-3.2-4.2-1.5 0-5 1.2-6.2 12.6-.2 2.1-.4 4.3-.4 6.4h0c-2.4 3.4-7.5 9.4-12.4 9.4-4.5 0-8.1-3.6-8.1-10.1 0-8.6 6.1-13.9 10.7-13.9h0c1 0 1.9.3 2.5.8s1 1.3 1 2.2c0 1.2-.4 1.8-.8 2.4-.1.2-.2.3-.3.5s-.2.4-.1.6.4.3.8.3c1.1 0 2.7-1.6 2.8-4 0-2.5-2.1-5.1-5.8-5.1-5.7 0-13.3 6.2-13.3 16.3 0 7.1 4.5 12.1 10.5 12.1 4.3 0 8.6-3.1 12.3-8.2l.2-.3v.4l.3 4.5a9.89 9.89 0 0 1 .1 1.5c0 .6.1 1 .3 1.3s.5.4 1 .4c.8 0 1-.6 1.4-2l.1-.4c.4-1.7 2-7.4 4.3-7.4.4 0 .7.1.9.3.5.5.5 1.7.4 2.9 0 .8-.1 1.6 0 2.4.2 2.2 1.2 3.3 2.9 3.3 1.8 0 3.6-1.9 4.6-3.7l.2-.3.1.4c.2.9 1 4.1 3.5 4.1 2.3 0 4.2-2.4 6.4-7.3l.3-.6v.7c0 1.9-.1 4.2-.1 5.9 0 1.4.1 1.9.8 1.9h.1c.6 0 1-.4 1.2-1.1 1.6-5.6 3-8.2 4.4-8.2s1.5 2.5 1.6 6.9v.3c0 1.5.1 2.2 1 2.2.7 0 .9-.6 1.3-2 .1-.3.1-.6.2-.9 1.3-4.5 2.4-6.4 3.7-6.4 1.2 0 1.2 1.2 1.2 1.6 0 .8 0 1.7-.1 2.6-.1.8-.2 1.6-.1 2.4.1 1.8 1 2.7 2.7 2.8 2.2 0 4.2-2.6 5.9-7.6l.1-.4.1.3a55.46 55.46 0 0 1 1.1 3.2h0c-1.7 3.7-2.9 7.9-2.9 10.1 0 2.9 1.3 4.8 3.4 4.8h0c1.1 0 3.7-.5 3.8-4.6 0-1.7-.4-4.1-1.2-7.2l-.1-.4.3.2c1.3.7 2.4 1 3.6 1h0zM196.8 46c0-1 .1-2.1.3-3 .8-6.2 2.5-10.5 4.1-10.5h0c.8 0 1.2.6 1.1 1.7 0 2.8-1.8 6.8-5.3 11.9l-.3.4.1-.5zm51.4 22.3c-.3.3-.6.5-1.1.5s-.9-.2-1.2-.5c-.7-1-.5-3.3.7-7.5.1-.5.3-1 .5-1.5l.1-.4.1.4c1.5 4.8 1.8 7.9.9 9zm.5-12.4h0l-.1-.2c1.6-3.3 3.4-5.2 5-5.2h0c1.8 0 3 1.6 3 3.9 0 1.5-.7 2.4-1.3 2.9s-1.5.8-2.4.8c-2 0-3.4-1.2-4.2-2.2h0zm4.9-5.3h0zm-106.7 9c2.5-.2 4.4-3.5 5.1-5l.2-.4.1.4c.3 2 1.4 5.4 4.9 5.4h0c1.5 0 3.2-.9 4.9-2.6l.1-.1.1.2c1.1 1.9 2.7 2.9 4.3 2.8 2.4-.1 3.9-1.8 4-3 0-.3 0-.6-.2-.8s-.5-.3-.8 0l-.1.1c-.6.5-1.6 1.5-2.7 1.6-1.4.1-2.4-.8-3.1-2.5v-.2c3.8-5 6.5-12.6 6.2-17.8-.1-2.4-.8-5.2-3.4-5.2h-.2c-1 .1-1.9.5-2.7 1.4-2.4 2.7-3.7 9.3-3.2 16.9.1 1.6.4 3 .8 4.4v.1l-.1.1c-1.4 1.7-2.8 2.6-3.9 2.6-2.7 0-2.6-4.5-2.4-8.3 0-.8.1-1.3-.1-1.6-.2-.2-.5-.3-.9-.3h0c-1 0-1.2.2-1.7 1.6-1 3-3 7.9-5.1 7.9-.6 0-1-.2-1.3-.6-1-1.3-.2-4.4.4-6.9.1-.5.2-.9.3-1.3.1-.6.1-1-.1-1.3s-.6-.4-1.2-.3c-.9.1-1.4.4-1.7 2.1l-.1.3-.2-.2c-.4-.6-1.1-1.2-2.5-1.2h-.4c-1.5.1-3.1 1.1-4.4 2.7a9.03 9.03 0 0 0-1.9 6.4v.5c-.9.9-1.7 1.4-2.6 1.4-1.3 0-2.1-1-2.1-2.7 0-2.8 1.9-11.2 1.9-14.2 0-3.2-1.4-5-3.9-5h0c-3.6 0-6.5 4.1-9.2 12.6-.3.8-.5 1.6-.8 2.5l-.4 1.3.2-1.4.5-8.6c.1-4.1-.4-6.8-1.7-8.1-.7-.7-1.6-1.1-2.8-1.1h0c-4.5 0-6.6 7.5-8.2 12.8-.5 1.6-1.4 5.2-2 7.7l.4-.6c.3-3.1 1.1-10.9 1-15.1-.1-4.5-1.6-6.6-4.9-6.6h0c-1.8 0-3 .9-3.7 1.6-1.2 1.2-1.9 2.9-1.8 4.4 0 .9.6 1.7 1 1.7.3 0 .4-.4.5-.6 1-3.4 2.4-5.1 4.1-5.1.7 0 1.2.2 1.6.6 1.3 1.4 1.1 5.3.7 12.3l-.4 7.8c0 .5-.1 1-.1 1.4-.1 2-.2 3.6.5 3.8 1 .2 1.7-.3 2-1.2.5-1.5 1.6-5.5 3.7-12.8 2.1-7 3.6-9.6 5.6-9.6 2.3 0 2.5 3.9 2 12.3l-.3 5.9v.9c-.1 1.8-.2 3.2.4 3.8.2.2.4.3.7.3 1 0 1.3-.9 1.8-2.3.1-.3.2-.5.3-.8 3.4-9.4 5.9-17.6 9.3-17.6 1 0 1.8.8 1.8 2.4 0 3.7-1.8 10.9-1.8 14.5 0 1.3.4 2.5 1.1 3.3s1.7 1.3 2.9 1.3h0c1.1 0 2.3-.6 3.5-1.6l.1-.1.1.1c.8 1.1 2.1 1.6 3.4 1.5 2.1-.2 3.9-2 4.5-3.8l.1-.3.1.3c.6 1.4 1.6 3 3.9 2.8h0zM166.3 35h0c.3 0 .5.1.7.4.8 1.1.8 5.3-.6 10-.8 2.7-1.9 5.2-3.2 7.3l-.2.3-.1-.4-.3-3.3c-.3-7.2 1.8-14.2 3.7-14.3h0zm-23.4 16.6c-.7 3-2.2 6.5-4.7 6.8h-.2c-1.1 0-1.7-.7-1.8-2.1-.1-1.7.6-3.7 1.9-5.1.8-.9 1.7-1.4 2.6-1.4h0c1.1 0 1.9.9 2.2 1.8h0zm11.8-10.9c-.9 0-1.7.7-1.7 1.7 0 .9.7 1.7 1.7 1.7v.1-.2c.9 0 1.7-.7 1.7-1.7 0-.9-.7-1.6-1.7-1.6h0zm59.2 0c-.9 0-1.7.7-1.7 1.7 0 .9.7 1.7 1.7 1.7v.1-.2c.9 0 1.7-.7 1.7-1.7 0-.9-.8-1.6-1.7-1.6h0zm46.2 20.1c-.8 0-1.4-.6-1.4-1.4s.6-1.4 1.4-1.4 1.4.6 1.4 1.4-.6 1.4-1.4 1.4zm0-2.3c-.5 0-1 .4-1 1 0 .5.4 1 1 1a.94.94 0 0 0 1-1c0-.6-.5-1-1-1z" fill="#010101"/><path d="M260.7 60.1c0-.1-.1-.2-.1-.4 0-.1-.1-.2-.2-.3.1-.1.2-.2.2-.4 0-.1 0-.2-.1-.3s-.2-.1-.4-.1h-.4v1.5h.3v-.6h.1c.1 0 .2.1.2.2 0 .2.1.3.1.4h.3zm-.3-1c0 .1-.1.2-.3.2h-.1v-.4h.1c.2 0 .3.1.3.2z"/></svg>