<?xml version="1.0" encoding="UTF-8" standalone="yes"?>
<svg version="1.1" id="Layer_1" xmlns="http://www.w3.org/2000/svg" xmlns:xlink="http://www.w3.org/1999/xlink" x="0px" y="0px" viewBox="0 39 534.271 140.333" enable-background="new 0 39 534.271 140.333" xml:space="preserve" preserveAspectRatio="xMidYMid meet">
  <path id="path243" fill="#201C1D" d="M120.131,90.736c-7.279,0-15.402,2.805-17.105,12.033c-0.182,0.98,0.466,1.448,1.094,1.591l7.458,0.895c0.69-0.034,1.159-0.785,1.292-1.492c0.637-3.176,3.25-4.674,6.166-4.674c1.576,0,3.344,0.541,4.276,1.989c1.069,1.613,0.995,3.807,0.995,5.668v1.094c-4.434,0.51-10.27,0.817-14.419,2.684c-4.79,2.13-8.155,6.462-8.155,12.831c0,8.16,4.999,12.23,11.437,12.23c5.436,0,8.439-1.277,12.63-5.668c1.391,2.07,1.836,3.008,4.375,5.172c0.565,0.303,1.284,0.273,1.79-0.199v0.1c1.527-1.393,4.305-3.93,5.868-5.271c0.624-0.521,0.486-1.381,0-2.09c-1.397-1.979-2.884-3.576-2.884-7.258v-12.231c0-5.181,0.438-9.958-3.282-13.525C128.736,91.729,123.848,90.736,120.131,90.736z M220.373,90.736c-7.281,0-15.398,2.805-17.104,12.033c-0.181,0.98,0.463,1.448,1.094,1.591l7.458,0.895c0.69-0.034,1.163-0.785,1.293-1.492c0.641-3.176,3.251-4.674,6.166-4.674c1.579,0,3.344,0.541,4.276,1.989c1.065,1.613,0.895,3.807,0.895,5.668v1.094c-4.433,0.51-10.168,0.817-14.32,2.684c-4.792,2.13-8.154,6.462-8.154,12.831c0,8.16,5.003,12.23,11.436,12.23c5.43,0,8.435-1.277,12.63-5.668c1.386,2.07,1.837,3.008,4.376,5.172c0.571,0.303,1.283,0.273,1.79-0.199v0.1c1.527-1.393,4.304-3.93,5.866-5.271c0.622-0.521,0.479-1.381,0-2.09c-1.398-1.979-2.884-3.576-2.884-7.258v-12.231c0-5.181,0.336-9.958-3.381-13.525C228.876,91.729,224.09,90.736,220.373,90.736z M163.987,91.134c-4.704,0-8.192,2.373-10.044,7.458h-0.099v-5.271c-0.049-0.734-0.648-1.355-1.393-1.393h-7.16c-0.811,0-1.492,0.687-1.492,1.492v40.276c0.061,0.715,0.664,1.342,1.393,1.393h7.658c0.817,0,1.488-0.682,1.492-1.492v-21.381c0-4.662-0.226-11.039,5.271-11.039c5.426,0,4.674,6.551,4.674,11.039v21.381c0,0.76,0.621,1.441,1.393,1.492h7.657c0.814,0,1.492-0.682,1.492-1.492v-21.381c0-2.287-0.094-5.621,0.696-7.657c0.786-2.037,2.716-3.381,4.575-3.381c2.214,0,3.904,0.772,4.475,3.48c0.356,1.61,0.199,5.864,0.199,7.558v21.381c0,0.76,0.622,1.441,1.393,1.492h7.656c0.814,0,1.492-0.682,1.492-1.492V108.14c0-4.325,0.436-9.234-1.989-12.63c-2.141-3.048-5.644-4.375-8.85-4.375c-4.5,0-8.686,2.373-10.542,7.458C171.791,93.511,168.77,91.134,163.987,91.134z M294.162,91.134c-11.063,0-17.204,9.729-17.204,22.275c0,12.461,6.072,22.475,17.204,22.475c10.709,0,17.503-9.783,17.503-22.077C311.665,101.098,305.512,91.134,294.162,91.134z M337.819,91.134c-5.286,0-8.307,2.643-10.441,8.155h-0.1v-6.165c-0.137-0.625-0.725-1.057-1.393-1.094h-7.061c-0.771,0-1.423,0.558-1.491,1.293v40.275c0,0.762,0.624,1.443,1.392,1.492h7.558c0.814,0,1.479-0.678,1.492-1.492v-21.678c0-2.718,0.229-5.198,1.292-7.657c0.858-1.952,2.518-3.183,4.376-3.183c5.277,0,4.773,6.43,4.773,10.84v21.877c0.074,0.686,0.692,1.25,1.393,1.293h7.656c0.756,0,1.405-0.57,1.493-1.293v-25.358c0-3.899,0.009-9.313-1.989-12.53C344.628,92.431,341.237,91.134,337.819,91.134L337.819,91.134z M245.931,91.83c-0.777,0-1.389,0.617-1.393,1.492v5.768c0.004,0.863,0.597,1.486,1.393,1.492h13.127l-15.017,22.176c-0.917,1.43-0.994,3.049-0.994,3.979v5.865c0,0.846,0.92,1.768,1.789,1.293c8.56-4.67,18.814-4.256,26.553-0.098c0.938,0.512,1.89-0.447,1.89-1.293v-6.166c-0.075-0.822-0.397-1.619-1.393-2.188c-4.392-2.527-9.491-3.3-14.32-3.183l13.027-19.093c1.207-1.715,1.881-2.75,1.89-3.58v-4.973c0-0.856-0.585-1.492-1.393-1.492H245.931L245.931,91.83z M294.162,99.388c2.424,0,4.215,1.082,5.071,3.879c0.995,3.223,1.095,7.249,1.095,10.641c0,5.168-0.243,13.723-6.166,13.723c-5.991,0-5.967-10.59-5.967-15.513C288.195,107.208,288.524,99.388,294.162,99.388z M124.208,114.107v1.69c0,3.058,0.11,5.631-1.392,8.353c-1.215,2.213-3.127,3.58-5.271,3.58c-2.928,0-4.673-2.373-4.673-5.768C112.872,115.275,118.682,114.107,124.208,114.107z M224.45,114.107v1.69c0,3.058,0.112,5.631-1.393,8.353c-1.214,2.213-3.116,3.58-5.271,3.58c-2.931,0-4.674-2.373-4.674-5.768C213.113,115.275,218.915,114.107,224.45,114.107z"/>
  <path id="path257" d="M274.074,136.383v5.768h3.879v-5.768H274.074z M161.6,137.377v41.072h3.58v-3.68c0.765,1.457,1.631,2.547,2.685,3.281c1.05,0.732,2.256,1.094,3.58,1.094c2.628,0,4.897-1.344,6.861-4.078c1.964-2.734,2.983-6.697,2.983-11.734c0-3.301-0.424-6.035-1.293-8.354c-0.868-2.313-2.029-4.033-3.48-5.17c-1.452-1.139-3.1-1.791-4.873-1.791c-1.267,0-2.449,0.332-3.481,0.996c-1.035,0.66-1.871,1.74-2.685,3.082v-14.719H161.6L161.6,137.377z M198.396,147.023c-2.698,0-4.842,0.799-6.365,2.387c-1.523,1.586-2.287,3.629-2.287,6.166c0,1.473,0.332,2.719,0.895,3.877c0.563,1.16,1.374,2.096,2.388,2.785c1.019,0.689,3.048,1.598,6.065,2.586c2.09,0.672,3.335,1.242,3.879,1.691c0.79,0.652,1.192,1.506,1.192,2.684c0,1.361-0.472,2.498-1.392,3.381c-0.919,0.889-2.199,1.293-3.878,1.293s-3.064-0.469-4.078-1.492c-1.013-1.021-1.56-2.572-1.789-4.674l-3.879,0.797c0.877,6.379,4.059,9.549,9.547,9.547c2.928,0,5.168-0.83,6.861-2.586c1.694-1.756,2.585-4.121,2.585-6.961c0-1.535-0.27-2.865-0.795-3.977c-0.525-1.113-1.246-1.939-2.188-2.586c-0.944-0.643-3.052-1.502-6.265-2.586c-2.337-0.816-3.704-1.416-4.176-1.789c-0.793-0.631-1.194-1.488-1.194-2.586c0-1.117,0.37-2.07,1.194-2.783c0.823-0.715,2.094-1.096,3.778-1.096c2.965,0,4.624,1.629,4.973,4.873l3.779-0.596c-0.262-2.051-0.709-3.674-1.393-4.773s-1.694-2.029-2.983-2.686C201.578,147.266,200.099,147.023,198.396,147.023z M222.162,147.023c-3.107,0-5.733,1.281-7.756,3.977c-2.026,2.697-2.984,6.605-2.984,11.734c0,4.943,0.977,8.814,2.984,11.438c2.008,2.621,4.611,3.879,7.856,3.879c2.579,0,4.72-0.773,6.464-2.387c1.746-1.613,3.015-3.988,3.679-7.16l-3.977-0.697c-1.144,4.066-3.251,6.061-6.166,6.066c-1.858,0-3.376-0.789-4.673-2.486c-1.3-1.699-2.032-4.219-2.188-7.557h17.104v-1.393c0-5.018-1-8.785-2.983-11.436C227.537,148.35,225.128,147.023,222.162,147.023z M245.731,147.023c-0.929,0-1.74,0.314-2.486,0.994c-0.746,0.682-1.591,2.086-2.486,4.178v-4.576h-3.48v29.734h3.878v-15.512c0-2.164,0.203-4.246,0.696-6.166c0.28-1.102,0.809-1.971,1.492-2.586s1.464-0.895,2.287-0.895c0.913,0,1.821,0.365,2.784,1.094l1.293-4.674C248.358,147.533,247.03,147.023,245.731,147.023z M293.267,147.023c-3.07,0-5.6,1.293-7.558,3.879c-1.954,2.586-2.983,6.467-2.983,11.635c0,5.131,1.045,9.012,2.983,11.635c1.939,2.621,4.363,3.879,7.359,3.879c2.475,0,4.6-0.92,6.365-2.785c1.765-1.863,2.84-4.607,3.281-8.154l-3.779-0.596c-0.28,2.535-0.941,4.359-1.989,5.568c-1.046,1.203-2.306,1.789-3.778,1.789c-1.877,0-3.475-0.877-4.674-2.684c-1.2-1.809-1.79-4.705-1.79-8.752c0-3.922,0.634-6.75,1.889-8.553c1.257-1.803,2.859-2.783,4.773-2.783c1.281,0,2.371,0.496,3.282,1.49c0.917,0.996,1.522,2.57,1.889,4.576l3.78-0.797c-0.454-3.133-1.461-5.494-3.084-7.061C297.608,147.742,295.635,147.023,293.267,147.023z M315.443,147.023c-3.107,0-5.73,1.281-7.757,3.977c-2.025,2.697-2.983,6.605-2.983,11.734c0,4.943,0.977,8.814,2.983,11.438c2.011,2.621,4.612,3.879,7.856,3.879c2.573,0,4.718-0.773,6.465-2.387c1.743-1.613,3.011-3.988,3.679-7.16l-3.977-0.697c-1.145,4.066-3.158,6.061-6.067,6.066c-1.858,0-3.474-0.789-4.772-2.486c-1.3-1.699-2.03-4.219-2.188-7.557h17.104v-1.393c0-5.018-1-8.785-2.983-11.436C320.823,148.35,318.408,147.023,315.443,147.023z M338.416,147.023c-2.704,0-4.842,0.799-6.364,2.387c-1.529,1.586-2.288,3.629-2.288,6.166c0,1.473,0.233,2.719,0.796,3.877c0.56,1.16,1.367,2.096,2.387,2.785c1.014,0.689,3.049,1.598,6.067,2.586c2.084,0.672,3.434,1.242,3.978,1.691c0.788,0.652,1.192,1.506,1.192,2.684c0,1.361-0.472,2.498-1.393,3.381c-0.916,0.889-2.199,1.293-3.878,1.293c-1.685,0-3.064-0.469-4.078-1.492c-1.013-1.021-1.665-2.572-1.889-4.674l-3.879,0.797c0.877,6.379,4.053,9.549,9.547,9.547c2.931,0,5.269-0.83,6.962-2.586s2.585-4.121,2.585-6.961c0-1.535-0.271-2.865-0.795-3.977c-0.525-1.113-1.343-1.939-2.288-2.586c-0.941-0.643-2.952-1.502-6.165-2.586c-2.338-0.816-3.805-1.416-4.276-1.789c-0.792-0.631-1.193-1.488-1.193-2.586c0-1.117,0.469-2.07,1.293-2.783c0.823-0.715,2.101-1.096,3.778-1.096c2.966,0,4.625,1.629,4.973,4.873l3.779-0.596c-0.264-2.051-0.706-3.674-1.393-4.773c-0.684-1.1-1.693-2.029-2.983-2.686C341.604,147.266,340.115,147.023,338.416,147.023z M249.71,147.619l8.651,29.736h3.68l8.651-29.736h-3.977l-5.072,18.199c-0.615,2.201-1.156,4.1-1.491,5.67c-0.423-1.977-0.83-4.053-1.393-6.066l-4.972-17.803H249.71z M274.074,147.619v29.736h3.879v-29.736H274.074z M146.583,148.018c-3.076,0-5.553,1.381-7.558,4.078c-2.007,2.697-3.083,6.604-3.083,11.734c0,4.941,0.995,8.717,2.984,11.336c1.988,2.621,4.642,3.979,7.856,3.979c2.551,0,4.637-0.873,6.364-2.486c1.725-1.613,2.918-3.988,3.58-7.16l-3.878-0.598c-1.13,4.066-3.183,6.061-6.066,6.066c-1.843,0-3.389-0.789-4.674-2.486c-1.286-1.699-2.032-4.221-2.188-7.557h16.906l0.099-1.393c0-5.02-1.02-8.885-2.984-11.535C151.979,149.346,149.518,148.018,146.583,148.018z M102.927,148.715l6.961,29.732h4.077l4.575-22.871l0.795,5.07l3.68,17.801h3.978l7.061-29.732h-3.68l-3.878,17.203l-1.293,5.768l-1.193-5.768l-3.381-17.203h-3.978l-3.58,17.402l-1.193,6.166l-1.393-6.365l-3.58-17.203H102.927z M350.449,149.014v1.391h3.778v9.945h1.492v-9.945h3.779v-1.391H350.449z M360.99,149.014v11.336h1.393v-9.646l3.28,9.646h1.393l3.281-9.447v9.447h1.492v-11.336h-2.088l-2.686,7.953c-0.271,0.797-0.463,1.371-0.597,1.791l-0.597-1.691l-2.685-8.055h-2.188V149.014z M222.063,151.102c1.934,0,3.524,0.934,4.773,2.783c0.857,1.268,1.417,3.195,1.592,5.77H215.6c0.122-2.615,0.86-4.625,2.088-6.166C218.915,151.945,220.33,151.102,222.063,151.102z M315.345,151.102c1.926,0,3.523,0.934,4.772,2.783c0.857,1.268,1.417,3.195,1.592,5.77H308.88c0.121-2.615,0.858-4.625,2.089-6.166C312.193,151.945,313.607,151.102,315.345,151.102z M146.583,152.195c1.91,0,3.441,0.936,4.674,2.783c0.85,1.268,1.416,3.195,1.591,5.768h-12.63c0.121-2.613,0.768-4.723,1.989-6.264C143.424,152.939,144.862,152.195,146.583,152.195z M171.247,152.195c1.725,0,3.192,0.957,4.375,2.783c1.184,1.83,1.691,4.65,1.691,8.553c0,3.807-0.563,6.639-1.79,8.553c-1.228,1.914-2.691,2.883-4.276,2.883c-1.165,0-2.225-0.391-3.182-1.193c-0.96-0.801-1.666-1.951-2.188-3.48c-0.522-1.527-0.796-3.885-0.796-6.959c0-3.621,0.645-6.34,1.89-8.256C168.215,153.164,169.662,152.195,171.247,152.195z"/>
  <path id="polygon287" fill="#F7A80D" d="M47.188,120.67l-14.817,6.363l13.724,5.869l15.911-5.869L47.188,120.67z M24.911,128.627l-0.497,28.639l21.68,9.547V137.08L24.911,128.627z M69.463,128.627l-19.591,7.457v28.045l19.591-7.957V128.627z"/>
  <path id="polygon311" fill="#F7A80D" d="M92.833,39.522l-14.917,6.365l13.824,5.867l15.911-5.867L92.833,39.522z M72.148,47.975v28.64l18.497,5.371l0.597-26.055L72.148,47.975z M113.518,49.566l-17.502,7.458v28.143l17.502-7.955V49.566z"/>
  <path id="use3387" fill="#F7A80D" d="M22.773,79.832L7.956,86.196l13.724,5.867l15.911-5.867L22.773,79.832z M0.497,87.787L0,116.427l21.68,9.547V96.24L0.497,87.787z M45.049,87.787l-19.591,7.458v28.043l19.591-7.955V87.787z"/>
  <path id="use3389" fill="#F7A80D" d="M70.507,78.773L55.69,85.138l13.724,5.867l15.912-5.867L70.507,78.773z M48.231,86.729l-0.497,28.64l21.679,9.547V95.182L48.231,86.729z M92.783,86.729l-19.591,7.458v28.043l19.591-7.957V86.729z"/>
  <path id="use3391" fill="#F7A80D" d="M139.458,39.522l-14.817,6.365l13.724,5.867l15.911-5.867L139.458,39.522z M117.182,47.478l-0.497,28.64l21.679,9.547V55.931L117.182,47.478z M161.734,47.478l-19.591,7.458V82.98l19.591-7.956V47.478z"/>
  <g>
    <path d="M529.475,122.406c-2.913-3.535-6.796-5.812-11.656-6.828c8.135-4.327,12.205-10.121,12.205-17.383c0-5.117-1.986-9.708-5.958-13.771c-4.82-4.967-11.22-7.45-19.201-7.45c-4.665,0-8.878,0.856-12.637,2.568c-3.759,1.712-6.69,4.064-8.792,7.054c-2.101,2.993-3.672,6.99-4.714,11.995l14.981,2.482c0.423-3.612,1.618-6.358,3.586-8.24c1.966-1.881,4.336-2.822,7.112-2.822c2.815,0,5.069,0.828,6.768,2.483c1.696,1.657,2.545,3.876,2.545,6.66c0,3.273-1.157,5.898-3.47,7.874c-2.314,1.975-5.67,2.907-10.065,2.794l-1.995,0.007v12.918c0,0,0.077-0.021,0.212-0.052l-0.008,0.052c0.339-0.095,0.655-0.163,0.984-0.245c3.477-0.584,13.663-1.32,17.577,9.069c0.153,0.933,0.232,1.921,0.232,2.973c0,4.213-1.145,7.562-3.44,10.045c-2.293,2.485-5.117,3.725-8.473,3.725c-3.121,0-5.782-1.036-7.979-3.104c-2.198-2.067-3.549-5.06-4.049-8.975l-15.732,1.863c0.809,6.963,3.739,12.597,8.792,16.905c5.052,4.309,11.412,6.462,19.086,6.462c8.097,0,14.864-2.558,20.3-7.676c5.437-5.119,8.155-11.308,8.155-18.569C533.841,130.215,532.385,125.944,529.475,122.406z M516.204,128.8c0.306,0.794,0.54,1.644,0.7,2.546L516.204,128.8z"/>
    <path d="M457.48,114.365c-3.991-2.051-10.151-4.036-18.479-5.955c-8.329-1.918-13.573-3.763-15.73-5.531c-1.697-1.391-2.546-3.066-2.546-5.022c0-2.145,0.905-3.857,2.719-5.136c2.813-1.994,6.709-2.993,11.682-2.993c4.819,0,8.435,0.932,10.847,2.794c2.396,1.854,3.963,4.893,4.7,9.111l16.034-7.567c-1.302-4.469-3.74-8.258-7.376-11.335c-5.38-4.554-13.389-6.831-24.03-6.831c-6.517,0-12.079,0.96-16.687,2.878c-4.608,1.919-8.135,4.713-10.583,8.383c-2.45,3.668-3.673,7.609-3.673,11.823c0,6.546,2.603,12.098,7.807,16.65c3.702,3.236,10.142,5.963,19.318,8.183c7.132,1.73,11.701,2.936,13.707,3.612c2.931,1.017,4.983,2.212,6.16,3.583c1.174,1.375,1.765,3.04,1.765,4.997c0,3.045-1.399,5.71-4.193,7.985c-2.797,2.275-6.951,3.415-12.465,3.415c-5.204,0-9.34-1.279-12.406-3.837c-3.064-2.558-5.1-6.568-6.101-12.023l-15.535,7.47c1.674,6.407,4.718,11.501,9.172,15.248c5.745,4.834,13.977,7.252,24.696,7.252c7.365,0,13.513-1.007,18.448-3.018c4.937-2.014,8.755-5.09,11.453-9.231c2.698-4.137,4.048-8.576,4.048-13.317c0-5.229-1.127-9.622-3.382-13.18C464.593,119.22,461.471,116.416,457.48,114.365z"/>
  </g>
  <rect x="381.938" y="54" fill="#201C1D" width="3.875" height="125"/>
</svg>