<?xml version="1.0" encoding="UTF-8" standalone="no"?>
<svg width="86px" height="60px" viewBox="0 0 86 60" version="1.1" xmlns="http://www.w3.org/2000/svg" xmlns:xlink="http://www.w3.org/1999/xlink">
    <!-- Generator: Sketch Beta 3.6 (26304) - http://www.bohemiancoding.com/sketch -->
    <title>salesforce</title>
    <desc>Created with Sketch Beta.</desc>
    <defs>
        <path id="path-1" d="M0,0.169073482 L85.4792971,0.169073482 L85.4792971,60 L0,60"></path>
    </defs>
    <g id="Page-1" stroke="none" stroke-width="1" fill="none" fill-rule="evenodd">
        <g id="Source-Catalog-Tiles" transform="translate(-842.000000, -1153.000000)">
            <g id="Source-Tile/Salesforce" transform="translate(777.000000, 1108.000000)">
                <g id="salesforce" transform="translate(65.000000, 45.000000)">
                    <g id="Group-3">
                        <mask id="mask-2" fill="white">
                            <use xlink:href="#path-1"></use>
                        </mask>
                        <g id="Clip-2"></g>
                        <path d="M35.5706454,6.69425559 C38.3270032,3.8224984 42.1648946,2.04090096 46.4099425,2.04090096 C52.0532013,2.04090096 56.9753099,5.18677955 59.5972907,9.85757827 C61.8761406,8.84007029 64.3974824,8.27342492 67.0507093,8.27342492 C77.2280895,8.27342492 85.4793355,16.5963642 85.4793355,26.8626901 C85.4793355,37.1305495 77.2280895,45.4534888 67.0507093,45.4534888 C65.808345,45.4534888 64.5947348,45.327738 63.4200383,45.0915719 C61.1122428,49.208377 56.7126901,51.9911885 51.6625304,51.9911885 C49.5494952,51.9911885 47.5507093,51.5037125 45.7693035,50.6343834 C43.4300703,56.1394313 37.9763962,59.9999425 31.622147,59.9999425 C25.0039361,59.9999425 19.3631693,55.8127859 17.1985687,49.9396869 C16.2525623,50.1394313 15.271476,50.2448626 14.2664281,50.2448626 C6.38706709,50.2448626 3.83386582e-05,43.7913163 3.83386582e-05,35.8301022 C3.83386582e-05,30.4935527 2.86815335,25.8352141 7.13313738,23.3426262 C6.25518211,21.3212204 5.76770607,19.0925942 5.76770607,16.748377 C5.76770607,7.59253035 13.2011885,0.169207668 22.3694952,0.169207668 C27.7528179,0.169207668 32.5367157,2.72812141 35.5706454,6.69425559" id="Fill-1" fill="#129CD8" mask="url(#mask-2)"></path>
                    </g>
                    <path d="M12.3801278,31.1956294 C12.3260703,31.3363323 12.3989137,31.365278 12.4165495,31.3892396 C12.5773802,31.5059808 12.739361,31.5901342 12.9040256,31.6844473 C13.7758466,32.1466198 14.5999361,32.2809968 15.460639,32.2809968 C17.2142492,32.2809968 18.3034505,31.348984 18.3034505,29.8476422 L18.3034505,29.8188882 C18.3034505,28.4304537 17.0735463,27.9255335 15.9216613,27.5613163 L15.7707987,27.513393 C14.9014696,27.2308371 14.1515655,26.9870032 14.1515655,26.4142236 L14.1515655,26.385278 C14.1515655,25.8953099 14.5899681,25.5347348 15.2695208,25.5347348 C16.0246006,25.5347348 16.9203834,25.7860447 17.4969968,26.1052141 C17.4969968,26.1052141 17.6677955,26.2144792 17.7293291,26.0500064 C17.7632588,25.9606773 18.0548243,25.1755016 18.086262,25.0900064 C18.1188498,24.998377 18.0611502,24.9293674 18.0007668,24.8929457 C17.3411502,24.492115 16.4304153,24.2181853 15.4882428,24.2181853 L15.3136102,24.2195272 C13.7079872,24.2195272 12.5873482,25.1893035 12.5873482,26.5786965 L12.5873482,26.6076422 C12.5873482,28.0712204 13.8235783,28.5473866 14.9819808,28.8778658 L15.1679233,28.9355655 C16.0121406,29.1943514 16.7394249,29.4180575 16.7394249,30.0109649 L16.7394249,30.0412524 C16.7394249,30.5837444 16.2657508,30.9884089 15.5045367,30.9884089 C15.2079872,30.9884089 14.2644728,30.9834249 13.245623,30.3389521 C13.1225559,30.2659169 13.0522045,30.2145431 12.9567412,30.1566518 C12.9065176,30.1252141 12.7809585,30.0713482 12.7255591,30.2358211 L12.3801278,31.1956294 Z" id="Fill-4" fill="#FEFEFE"></path>
                    <path d="M38.0494313,31.1956294 C37.9953738,31.3363323 38.0682173,31.365278 38.085853,31.3892396 C38.2466837,31.5059808 38.4086645,31.5901342 38.5733291,31.6844473 C39.4451502,32.1466198 40.2692396,32.2809968 41.1299425,32.2809968 C42.8835527,32.2809968 43.972754,31.348984 43.972754,29.8476422 L43.972754,29.8188882 C43.972754,28.4304537 42.7428498,27.9255335 41.5909649,27.5613163 L41.4401022,27.513393 C40.5707732,27.2308371 39.820869,26.9870032 39.820869,26.4142236 L39.820869,26.385278 C39.820869,25.8953099 40.2592716,25.5347348 40.9388243,25.5347348 C41.6939042,25.5347348 42.5896869,25.7860447 43.1663003,26.1052141 C43.1663003,26.1052141 43.337099,26.2144792 43.3986326,26.0500064 C43.4325623,25.9606773 43.7241278,25.1755016 43.7555655,25.0900064 C43.7881534,24.998377 43.7304537,24.9293674 43.6700703,24.8929457 C43.0104537,24.492115 42.1010607,24.2181853 41.1575463,24.2181853 L40.9829137,24.2195272 C39.3772907,24.2195272 38.2566518,25.1893035 38.2566518,26.5786965 L38.2566518,26.6076422 C38.2566518,28.0712204 39.4942236,28.5473866 40.6512843,28.8778658 L40.8372268,28.9355655 C41.6814441,29.1943514 42.4100703,29.4180575 42.4100703,30.0109649 L42.4100703,30.0412524 C42.4100703,30.5837444 41.9363962,30.9884089 41.1738403,30.9884089 C40.8772907,30.9884089 39.9351182,30.9834249 38.9149265,30.3389521 C38.7918594,30.2659169 38.719016,30.2170351 38.6260447,30.1566518 C38.594607,30.1367157 38.4464281,30.0788243 38.3962045,30.2358211 L38.0494313,31.1956294 Z" id="Fill-6" fill="#FEFEFE"></path>
                    <path d="M55.5731885,28.2544792 C55.5731885,29.1025304 55.4148498,29.772115 55.1033482,30.2444473 C54.7943387,30.7117955 54.3281406,30.9404856 53.6786837,30.9404856 C53.027885,30.9404856 52.5643706,30.7117955 52.260345,30.2444473 C51.9524856,29.772115 51.7968307,29.1025304 51.7968307,28.2544792 C51.7968307,27.40777 51.9524856,26.7393355 52.2590032,26.2721789 C52.5643706,25.8098147 53.027885,25.5847668 53.6786837,25.5847668 C54.3281406,25.5847668 54.7943387,25.8098147 55.1033482,26.2721789 C55.4148498,26.7393355 55.5731885,27.40777 55.5731885,28.2544792 M57.0367668,26.6816358 C56.8935719,26.1955016 56.6687157,25.7670671 56.371016,25.4103259 C56.0731246,25.0522428 55.6951054,24.7645112 55.2465431,24.5559489 C54.7993227,24.3473866 54.2715911,24.2406134 53.6786837,24.2406134 C53.0844345,24.2406134 52.5555527,24.3473866 52.1083323,24.5559489 C51.6611118,24.7645112 51.282901,25.0522428 50.9852013,25.411476 C50.6861597,25.7684089 50.4626454,26.1968435 50.3194505,26.6816358 C50.1760639,27.165278 50.1032204,27.6941597 50.1032204,28.2544792 C50.1032204,28.8147987 50.1760639,29.3450224 50.3194505,29.8273227 C50.4626454,30.3123067 50.6861597,30.7407412 50.9852013,31.0988243 C51.282901,31.4567157 51.662262,31.7432971 52.1096741,31.9466837 C52.5568946,32.150262 53.0844345,32.253393 53.6786837,32.253393 C54.2715911,32.253393 54.7979808,32.150262 55.2465431,31.9466837 C55.6937636,31.7432971 56.0719744,31.4567157 56.371016,31.0988243 C56.6687157,30.7420831 56.8935719,30.3136486 57.0367668,29.8273227 C57.1799617,29.3436805 57.2528051,28.8147987 57.2528051,28.2544792 C57.2528051,27.6941597 57.1799617,27.165278 57.0367668,26.6816358" id="Fill-8" fill="#FEFEFE"></path>
                    <path d="M69.0559553,30.712869 C69.0082236,30.571016 68.8686709,30.6250735 68.8686709,30.6250735 C68.6564665,30.7067348 68.4302684,30.7807284 68.1877764,30.818492 C67.9441342,30.8574058 67.6751885,30.8761917 67.3863067,30.8761917 C66.6789585,30.8761917 66.1149968,30.6651374 65.7116741,30.2493546 C65.3083514,29.83223 65.0810032,29.1588115 65.0834952,28.2480767 C65.0859872,27.4201534 65.2857316,26.7971502 65.6451565,26.320984 C66.0018978,25.8486518 66.5459233,25.6061597 67.2695655,25.6061597 C67.8724409,25.6061597 68.333655,25.6765112 68.8159553,25.8271821 C68.8159553,25.8271821 68.9315463,25.8774058 68.9856038,25.7267348 C69.1149968,25.3698019 69.2091182,25.1173419 69.3461789,24.7266709 C69.3850927,24.6149137 69.2896294,24.5683323 69.2543578,24.5545304 C69.0647732,24.480345 68.6175527,24.3586198 68.2782556,24.3070543 C67.9629201,24.2593227 67.592377,24.2342109 67.1802364,24.2342109 C66.5660511,24.2342109 66.0181917,24.3396422 65.5496933,24.5482045 C65.0810032,24.7556166 64.6853482,25.0433482 64.3700128,25.4012396 C64.0558275,25.7593227 63.8171693,26.1877572 63.6588307,26.6727412 C63.4993419,27.1563834 63.4201725,27.6864153 63.4201725,28.2492268 C63.4201725,29.4628371 63.7468179,30.444115 64.3937827,31.1614313 C65.0420895,31.8837316 66.0145495,32.2492907 67.2833674,32.2492907 C68.0332716,32.2492907 68.8021534,32.097278 69.356147,31.8798978 C69.356147,31.8798978 69.46177,31.828524 69.4151885,31.7054569 L69.0559553,30.712869 Z" id="Fill-10" fill="#FEFEFE"></path>
                    <path d="M71.616901,27.4414696 C71.6872524,26.9702875 71.8166454,26.5784665 72.0177316,26.273099 C72.3204153,25.8095847 72.7827796,25.5532907 73.4335783,25.5532907 C74.0841853,25.5532907 74.5126198,25.8095847 74.8216294,26.273099 C75.0265495,26.5796166 75.1156869,26.9867732 75.1507668,27.4428115 L71.616901,27.4414696 Z M76.5439936,26.4063259 C76.4197764,25.9364856 76.1119169,25.4628115 75.9108307,25.2467732 C75.591853,24.902492 75.2790096,24.662492 74.97,24.5294569 C74.5666773,24.3559744 74.0816933,24.2417252 73.5503195,24.2417252 C72.9323003,24.2417252 72.370639,24.3460064 71.9146006,24.5595527 C71.4585623,24.773099 71.0753674,25.0658147 70.7738339,25.4302236 C70.4736422,25.7932907 70.2474441,26.2253674 70.103099,26.7166773 C69.9585623,27.2041534 69.8857188,27.7355272 69.8857188,28.2969968 C69.8857188,28.8686262 69.9610543,29.4013419 70.1105751,29.8786581 C70.2614377,30.3623003 70.5025879,30.7857508 70.8278914,31.1388498 C71.1545367,31.493099 71.5730032,31.7693291 72.0742812,31.9640895 C72.5728754,32.1563578 73.1784345,32.2568051 73.873131,32.2543131 C75.3041214,32.2504792 76.0578594,31.9315016 76.3682109,31.759361 C76.4234185,31.7279233 76.474984,31.6752077 76.4109585,31.5220447 L76.0854633,30.6149521 C76.0365815,30.4803834 75.8995208,30.5294569 75.8995208,30.5294569 C75.5441214,30.6613419 75.0415016,30.897508 73.865655,30.895016 C73.0967732,30.8938658 72.5276358,30.6676677 72.1708946,30.3120767 C71.8053355,29.9503514 71.624377,29.4176358 71.5942812,28.6652396 L76.5478275,28.6688818 C76.5478275,28.6688818 76.6785623,28.6675399 76.6923642,28.5394888 C76.6973482,28.4867732 76.8618211,27.5219808 76.5439936,26.4063259 L76.5439936,26.4063259 Z" id="Fill-12" fill="#FEFEFE"></path>
                    <path d="M31.9373291,27.4414696 C32.0076805,26.9702875 32.1370735,26.5784665 32.3368179,26.273099 C32.6421853,25.8095847 33.1032077,25.5532907 33.7540064,25.5532907 C34.4046134,25.5532907 34.8343898,25.8095847 35.1433994,26.273099 C35.3469776,26.5796166 35.436115,26.9867732 35.4711949,27.4428115 L31.9373291,27.4414696 Z M36.8644217,26.4063259 C36.7402045,25.9364856 36.432345,25.4628115 36.2312588,25.2467732 C35.9122812,24.902492 35.6005879,24.662492 35.2904281,24.5294569 C34.8857636,24.3559744 34.4021214,24.2417252 33.8720895,24.2417252 C33.2527284,24.2417252 32.6910671,24.3460064 32.2350288,24.5595527 C31.7789904,24.773099 31.3957955,25.0658147 31.094262,25.4302236 C30.7940703,25.7932907 30.5678722,26.2253674 30.4235272,26.7166773 C30.2789904,27.2041534 30.206147,27.7355272 30.206147,28.2969968 C30.206147,28.8686262 30.2814824,29.4013419 30.4310032,29.8786581 C30.5818658,30.3623003 30.823016,30.7857508 31.1483195,31.1388498 C31.4749649,31.493099 31.8934313,31.7693291 32.3947093,31.9640895 C32.8933035,32.1563578 33.4988626,32.2568051 34.1935591,32.2543131 C35.6245495,32.2504792 36.3782875,31.9315016 36.688639,31.759361 C36.7438466,31.7279233 36.7954121,31.6752077 36.7313866,31.5220447 L36.4058914,30.6149521 C36.3570096,30.4803834 36.2199489,30.5294569 36.2199489,30.5294569 C35.8645495,30.6613419 35.3619297,30.897508 34.1860831,30.895016 C33.4185431,30.8938658 32.8480639,30.6676677 32.4913227,30.3120767 C32.1257636,29.9503514 31.9448051,29.4176358 31.9147093,28.6652396 L36.8682556,28.6688818 C36.8682556,28.6688818 36.9989904,28.6675399 37.0127923,28.5394888 C37.0177764,28.4867732 37.1822492,27.5219808 36.8644217,26.4063259 L36.8644217,26.4063259 Z" id="Fill-14" fill="#FEFEFE"></path>
                    <path d="M21.2281917,30.6857827 C21.0334313,30.531278 21.0071693,30.4923642 20.9429521,30.3919169 C20.8438466,30.2399042 20.7934313,30.0236741 20.7934313,29.7474441 C20.7934313,29.3126837 20.9379681,28.9986901 21.2356677,28.7887859 C21.2331757,28.7887859 21.6629521,28.416901 22.672984,28.4307029 C23.3826326,28.4395208 24.0184792,28.5451438 24.0184792,28.5451438 L24.0184792,30.7977316 C24.0184792,30.7977316 23.3889585,30.9321086 22.6804601,30.9748562 C21.6729201,31.0363898 21.2243578,30.6846326 21.2281917,30.6857827 M23.1993738,27.2046326 C22.9982875,27.1894888 22.7381597,27.1820128 22.4266581,27.1820128 C22.0020575,27.1820128 21.5912588,27.2347284 21.2055719,27.3390096 C20.8185431,27.4432907 20.4706198,27.6041214 20.1715783,27.8176677 C19.8700447,28.0337061 19.6288946,28.3089776 19.4531118,28.635623 C19.2771374,28.9622684 19.188,29.3466134 19.188,29.7761981 C19.188,30.2159425 19.2633355,30.5966454 19.4153482,30.908147 C19.5660192,31.2209904 19.7833994,31.4822684 20.0611629,31.6833546 C20.3362428,31.8842492 20.6766901,32.031278 21.069853,32.1204153 C21.4593738,32.2097444 21.9002684,32.254984 22.3827604,32.254984 C22.8915144,32.254984 23.3966262,32.2122364 23.8877444,32.1292332 C24.3738786,32.0464217 24.9694696,31.9258466 25.1352843,31.8869329 C25.2997572,31.8491693 25.4820575,31.7989457 25.4820575,31.7989457 C25.6051246,31.767508 25.5949649,31.6367732 25.5949649,31.6367732 L25.5924728,27.1066773 C25.5924728,26.1115974 25.3275527,25.3754952 24.806147,24.9183067 C24.2860831,24.4634185 23.5196933,24.2335783 22.5297891,24.2335783 C22.1579042,24.2335783 21.5611629,24.2838019 21.201738,24.3554952 C21.201738,24.3554952 20.1202045,24.5652077 19.675476,24.9144728 C19.675476,24.9144728 19.5773291,24.9746645 19.6302364,25.1117252 L19.9806518,26.0538978 C20.0247412,26.1758147 20.1439744,26.1342173 20.1439744,26.1342173 C20.1439744,26.1342173 20.181738,26.1192652 20.2256358,26.0928115 C21.1779681,25.5752396 22.3839105,25.5903834 22.3839105,25.5903834 C22.9191182,25.5903834 23.3312588,25.6996486 23.6088307,25.9107029 C23.8789265,26.1192652 24.0159872,26.4307668 24.0159872,27.0915335 L24.0159872,27.3014377 C23.5911949,27.2397125 23.1993738,27.2046326 23.1993738,27.2046326" id="Fill-16" fill="#FEFEFE"></path>
                    <path d="M63.1605623,24.651623 C63.1983259,24.5398658 63.1191565,24.4858083 63.086377,24.4733482 C63.0022236,24.4419105 62.580115,24.3525815 62.2559617,24.3313035 C61.6329585,24.2935399 61.2873355,24.3978211 60.9783259,24.5373738 C60.6706581,24.6755847 60.3302109,24.9004409 60.1415847,25.155393 L60.1404345,24.5511757 C60.1404345,24.4681725 60.081393,24.401655 59.9983898,24.401655 L58.7284217,24.401655 C58.6454185,24.401655 58.586377,24.4681725 58.586377,24.5511757 L58.586377,31.9419105 C58.586377,32.0249137 58.6528946,32.0914313 58.7372396,32.0914313 L60.0386454,32.0914313 C60.1216486,32.0914313 60.1881661,32.0249137 60.1881661,31.9419105 L60.1881661,28.2497061 C60.1881661,27.7534121 60.2433738,27.2598019 60.3528307,26.9494505 C60.4596038,26.6415911 60.6052907,26.396607 60.7862492,26.2208243 C60.967016,26.0448498 61.1730863,25.9217827 61.3992843,25.8527732 C61.6291246,25.78223 61.8840767,25.7584601 62.0625431,25.7584601 C62.3226709,25.7584601 62.6065687,25.8263195 62.6065687,25.8263195 C62.7031821,25.8362875 62.7560895,25.777246 62.7886773,25.6917508 C62.8728307,25.4657444 63.1153227,24.7861917 63.1605623,24.651623" id="Fill-18" fill="#FEFEFE"></path>
                    <path d="M50.942492,21.2265623 C50.7841534,21.1776805 50.6409585,21.144901 50.452524,21.1109712 C50.2615974,21.0758914 50.0353994,21.0582556 49.7791054,21.0582556 C48.8833227,21.0582556 48.1773163,21.3120575 47.6812141,21.8119936 C47.188754,22.3082875 46.8532907,23.0645176 46.684984,24.0582556 L46.6246006,24.3937188 L45.5003195,24.3937188 C45.5003195,24.3937188 45.3621086,24.3887348 45.3343131,24.5382556 L45.1497125,25.5684153 C45.1359105,25.6663706 45.1786581,25.7279042 45.3105431,25.7279042 L46.4060703,25.7279042 L45.2942492,31.9289904 C45.2076038,32.4275847 45.1083067,32.8385751 44.9976997,33.1500767 C44.8895847,33.4579361 44.7828115,33.6877764 44.6522684,33.8547412 C44.5253674,34.0157636 44.4059425,34.136147 44.198722,34.2053482 C44.0279233,34.2618978 43.8306709,34.2883514 43.6157827,34.2883514 C43.4963578,34.2883514 43.336869,34.2682236 43.2187859,34.244262 C43.1007029,34.2216422 43.0391693,34.1953802 42.9511821,34.1587668 C42.9511821,34.1587668 42.823131,34.109885 42.7715655,34.2381278 C42.7313099,34.3435591 42.4399361,35.1463706 42.4046645,35.2456677 C42.3695847,35.343623 42.4184665,35.4201086 42.4813419,35.4427284 C42.6270288,35.4942939 42.7351438,35.5282236 42.9335463,35.5746134 C43.2099681,35.6399808 43.442492,35.6438147 43.6596805,35.6438147 C44.1157188,35.6438147 44.5316933,35.5797891 44.8757827,35.4553802 C45.2225559,35.3296294 45.5240895,35.111099 45.7916933,34.8172332 C46.0794249,34.4980639 46.2615335,34.1639425 46.4348243,33.7079042 C46.6069649,33.2568498 46.7528435,32.6965304 46.8709265,32.0432396 L47.9863898,25.7279042 L49.6182748,25.7279042 C49.6182748,25.7279042 49.7564856,25.7328882 49.7840895,25.5833674 L49.9688818,24.5532077 C49.9813419,24.4552524 49.9399361,24.3937188 49.8080511,24.3937188 L48.2238978,24.3937188 C48.2313738,24.358639 48.3030671,23.8008115 48.4851757,23.2769137 C48.5630032,23.0518658 48.7088818,22.8724409 48.833099,22.7480319 C48.9538658,22.626115 49.0945687,22.5394696 49.2477316,22.4890543 C49.4047284,22.4388307 49.5831949,22.4137188 49.7791054,22.4137188 C49.9286262,22.4137188 50.0743131,22.4313546 50.186262,22.4539744 C50.3394249,22.486754 50.3998083,22.5041981 50.4400639,22.515508 C50.6007029,22.5657316 50.6221725,22.518 50.6547604,22.4401725 L51.0329712,21.399853 C51.071885,21.2880958 50.9777636,21.2403642 50.942492,21.2265623" id="Fill-20" fill="#FEFEFE"></path>
                    <path d="M28.8082812,31.941853 C28.8082812,32.0248562 28.7492396,32.0927157 28.6662364,32.0927157 L27.3521789,32.0927157 C27.2693674,32.0927157 27.2103259,32.0248562 27.2103259,31.941853 L27.2103259,21.3676677 C27.2103259,21.2848562 27.2693674,21.218147 27.3521789,21.218147 L28.6662364,21.218147 C28.7492396,21.218147 28.8082812,21.2848562 28.8082812,21.3676677 L28.8082812,31.941853 Z" id="Fill-22" fill="#FEFEFE"></path>
                </g>
            </g>
        </g>
    </g>
</svg>