<?xml version="1.0" encoding="utf-8"?>
<!-- Generator: Adobe Illustrator 21.0.0, SVG Export Plug-In . SVG Version: 6.00 Build 0)  -->
<svg version="1.1" id="Layer_1" xmlns="http://www.w3.org/2000/svg" xmlns:xlink="http://www.w3.org/1999/xlink" x="0px" y="0px"
	 viewBox="0 0 135 50" style="enable-background:new 0 0 135 50;" xml:space="preserve">
<style type="text/css">
	.st0{fill:#CF272D;}
</style>
<title>twilio</title>
<desc>Created with Sketch Beta.</desc>
<g>
	<path class="st0" d="M22.6,7.3c0.3,0,0.7,0.1,1,0.1c3.8,0.3,7.2,1.7,10.1,4.1c3.1,2.6,5.2,5.8,6.2,9.8c0.5,1.9,0.7,3.9,0.5,5.8
		c-0.3,4.4-2,8.3-5,11.5c-2.7,2.9-6,4.7-9.8,5.5c-1.5,0.3-3,0.4-4.6,0.3c-4.4-0.2-8.3-1.8-11.6-4.8c-3-2.7-4.9-6.1-5.7-10
		c-0.4-1.8-0.5-3.5-0.3-5.3c0.4-4.1,1.9-7.7,4.7-10.8c2.8-3.1,6.2-5,10.2-5.8c0.9-0.2,1.8-0.2,2.7-0.3c0.1,0,0.1,0,0.2,0
		C21.7,7.3,22.1,7.3,22.6,7.3z M35.6,25.9c0-7.6-6.1-13.5-13.4-13.7c-7.8-0.2-14,6.1-14,13.6c0,7.5,6,13.7,13.7,13.7
		C29.5,39.6,35.6,33.5,35.6,25.9z"/>
	<path class="st0" d="M22.7,30.6c0-2.2,1.7-3.8,3.9-3.8c2.1,0,3.8,1.7,3.8,3.9c0,2.1-1.7,3.8-3.9,3.8C24.4,34.4,22.7,32.7,22.7,30.6
		z"/>
	<path class="st0" d="M21.1,30.6c0,2.1-1.7,3.9-3.9,3.8c-2.1,0-3.8-1.7-3.8-3.9c0-2.2,1.7-3.8,3.9-3.8
		C19.4,26.7,21.1,28.4,21.1,30.6z"/>
	<path class="st0" d="M26.5,17.5c2.1,0,3.9,1.7,3.9,3.8c0,2.1-1.7,3.9-3.9,3.9c-2.1,0-3.8-1.7-3.8-3.9
		C22.7,19.2,24.4,17.5,26.5,17.5z"/>
	<path class="st0" d="M17.3,17.5c2.1,0,3.9,1.7,3.8,3.8c0,2.1-1.7,3.8-3.9,3.8c-2.1,0-3.9-1.7-3.9-3.8
		C13.4,19.2,15.1,17.5,17.3,17.5z"/>
	<g>
		<path class="st0" d="M57.8,21.6c0,0.1,0,0.2,0,0.2c0,1.2,0,2.3,0,3.5c0,0.4-0.1,0.5-0.5,0.5c-1.1,0-2.1,0-3.2,0
			c-0.2,0-0.3,0-0.3,0.2c0,1.4,0,2.7,0,4.1c0,0.2,0,0.4,0.1,0.6c0.1,0.7,0.6,1.1,1.3,1.1c0.7,0,1.4,0,2-0.3c0.3-0.1,0.4,0,0.4,0.3
			c0,1.6,0,3.2,0,4.7c0,0.2-0.1,0.2-0.2,0.3c-0.8,0.4-1.7,0.6-2.6,0.7c-1,0.1-2,0.2-3,0c-1.4-0.2-2.7-0.6-3.7-1.7
			C47.5,35,47.2,34,47,33c-0.1-0.5-0.1-1-0.1-1.6c0-1.8,0-3.6,0-5.4c0-0.3,0-0.3-0.3-0.3c-0.4,0-0.9,0-1.3,0c-0.3,0-0.4-0.1-0.4-0.4
			c0-1.6,0-3.1,0-4.7c0-0.3,0.1-0.4,0.4-0.4c0.5,0,0.9,0,1.4,0c0.2,0,0.2-0.1,0.2-0.2c0-1,0-2,0-3c0-0.3,0-0.4,0.3-0.5
			c2-0.6,4.1-1.3,6.1-1.9c0.3-0.1,0.5,0,0.5,0.4c0,1.6,0,3.3,0,4.9c0,0.1,0,0.2,0,0.3c0.1,0,0.3,0,0.4,0c3.1,0,6.2,0,9.3,0
			c0.5,0,0.6,0,0.7,0.5c0.5,2,1,4,1.5,6c0,0,0,0.1,0.1,0.2c0-0.1,0.1-0.2,0.1-0.3c0.6-2,1.2-4,1.8-6c0.1-0.4,0.2-0.4,0.6-0.4
			c1.6,0,3.1,0,4.7,0c0.4,0,0.5,0.1,0.6,0.4c0.6,2,1.2,4.1,1.8,6.1c0,0.1,0.1,0.2,0.1,0.2c0,0,0,0,0.1,0c0.1-0.4,0.2-0.8,0.3-1.2
			c0.4-1.7,0.9-3.4,1.3-5.1c0.1-0.3,0.2-0.4,0.5-0.4c4.1,0,8.2,0,12.4,0c0.4,0,0.5,0.1,0.5,0.5c0,5.4,0,10.7,0,16.1
			c0,0.3-0.1,0.4-0.4,0.4c-2,0-4,0-6,0c-0.4,0-0.5-0.1-0.5-0.5c0-4.7,0-9.4,0-14.1c0-0.3,0-0.6,0-0.9c0-0.1,0-0.1-0.1-0.2
			c-0.1,0.2-0.2,0.5-0.2,0.7c-1.5,4.9-2.9,9.7-4.4,14.6c-0.1,0.4-0.2,0.5-0.6,0.5c-1.6,0-3.3,0-4.9,0c-0.3,0-0.5-0.1-0.6-0.4
			c-0.7-2.2-1.4-4.3-2-6.5c0-0.1,0-0.1-0.1-0.3c-0.1,0.3-0.2,0.5-0.2,0.7c-0.6,2-1.3,4-1.9,6c-0.1,0.4-0.2,0.5-0.6,0.5
			c-1.6,0-3.2,0-4.8,0c-0.4,0-0.5-0.1-0.6-0.5c-1.5-5-3-10-4.5-15C57.9,21.7,57.8,21.6,57.8,21.6C57.8,21.5,57.8,21.6,57.8,21.6z"/>
		<path class="st0" d="M117.5,37.5c-2.7,0-5-0.8-6.9-2.5c-1.5-1.4-2.4-3.1-2.7-5.1c-0.3-2.7,0.4-5,2.3-7c1.4-1.5,3.2-2.5,5.3-2.8
			c2.4-0.4,4.8-0.1,6.9,1.2c2.2,1.3,3.7,3.2,4.2,5.8c0.6,3.6-0.6,6.5-3.5,8.7c-1.3,1-2.8,1.5-4.4,1.7
			C118.2,37.5,117.8,37.5,117.5,37.5z M114.6,28.7c0,0.6,0.2,1.2,0.5,1.7c1.1,1.7,3.4,1.8,4.5,0.1c0.8-1.1,0.7-2.8-0.2-3.8
			c-0.9-1.1-2.6-1.3-3.7-0.4C115,26.9,114.6,27.7,114.6,28.7z"/>
		<path class="st0" d="M91.9,25.9c0-3.6,0-7.2,0-10.8c0-0.4,0.1-0.5,0.5-0.5c2,0,4,0,6,0c0.4,0,0.5,0.1,0.5,0.5c0,7.2,0,14.5,0,21.7
			c0,0.4-0.1,0.4-0.4,0.4c-2,0-4.1,0-6.1,0c-0.4,0-0.4-0.1-0.4-0.4C91.9,33.2,91.9,29.5,91.9,25.9z"/>
		<path class="st0" d="M107.2,28.8c0,2.7,0,5.3,0,8c0,0.4-0.1,0.5-0.5,0.5c-2,0-4,0-6,0c-0.4,0-0.4-0.1-0.4-0.4c0-5.3,0-10.7,0-16
			c0-0.4,0.1-0.5,0.5-0.5c2,0,4,0,6.1,0c0.4,0,0.4,0.1,0.4,0.4C107.2,23.4,107.2,26.1,107.2,28.8z"/>
		<path class="st0" d="M87.1,19.1c-1.1,0-2.1,0-3.2,0c-0.3,0-0.4-0.1-0.4-0.4c0-1.2,0-2.4,0-3.6c0-0.3,0.1-0.4,0.4-0.4
			c2.1,0,4.2,0,6.4,0c0.3,0,0.4,0.1,0.4,0.4c0,1.2,0,2.4,0,3.6c0,0.3-0.1,0.4-0.4,0.4C89.2,19.1,88.2,19.1,87.1,19.1z"/>
		<path class="st0" d="M103.8,19.1c-1.1,0-2.1,0-3.2,0c-0.3,0-0.4-0.1-0.4-0.4c0-1.2,0-2.4,0-3.6c0-0.3,0.1-0.4,0.4-0.4
			c2.1,0,4.3,0,6.4,0c0.3,0,0.4,0.1,0.4,0.4c0,1.2,0,2.5,0,3.7c0,0.3-0.1,0.4-0.4,0.4C105.9,19.1,104.8,19.1,103.8,19.1z"/>
		<g>
			<path class="st0" d="M126.6,20.9h-0.3v-0.1h0.8v0.1h-0.4v1h-0.1V20.9z"/>
			<path class="st0" d="M128.2,21.5c0-0.2,0-0.4,0-0.5h0c0,0.1-0.1,0.3-0.1,0.4l-0.2,0.6h-0.1l-0.2-0.5c-0.1-0.2-0.1-0.3-0.1-0.4h0
				c0,0.1,0,0.3,0,0.5l0,0.5h-0.1l0.1-1.1h0.2l0.2,0.6c0,0.1,0.1,0.3,0.1,0.4h0c0-0.1,0.1-0.2,0.1-0.4l0.2-0.6h0.2l0.1,1.1h-0.1
				L128.2,21.5z"/>
		</g>
	</g>
</g>
</svg>
